<svg width="340" height="340" viewBox="0 0 340 340" fill="none" xmlns="http://www.w3.org/2000/svg">
<path d="M170 277.977C229.808 277.977 278.292 229.494 278.292 169.686C278.292 109.878 229.808 61.394 170 61.394C110.192 61.394 61.7085 109.878 61.7085 169.686C61.7085 229.494 110.192 277.977 170 277.977Z" fill="white"/>
<path d="M125.267 129.375C119.31 113.583 94.9407 112.572 96.4671 135.579C96.67 138.633 97.7901 141.57 99.487 144.118L124.525 174.357L149.109 144.854C151.838 141.575 153.452 137.425 153.37 133.153C152.963 112.661 129.588 114.154 124.52 129.369" fill="white"/>
<path d="M216.147 129.375C210.24 113.583 186.074 112.572 187.588 135.579C187.789 138.633 188.9 141.57 190.583 144.118L215.413 174.357L239.791 144.854C242.497 141.575 244.098 137.425 244.017 133.153C243.613 112.661 220.433 114.154 215.407 129.369" fill="white"/>
<path d="M229.259 201.107C229.259 227.613 209.586 248.683 170.15 248.683C130.723 248.683 110.792 227.548 110.792 201.106C110.792 201.106 172.12 215.378 229.259 201.107Z" fill="white"/>
<path d="M170 277.977C229.808 277.977 278.292 229.494 278.292 169.686C278.292 109.878 229.808 61.394 170 61.394C110.192 61.394 61.7085 109.878 61.7085 169.686C61.7085 229.494 110.192 277.977 170 277.977Z" stroke="#1A1A1A" stroke-width="6" stroke-miterlimit="10" stroke-linecap="round" stroke-linejoin="round"/>
<path d="M229.259 201.107C229.259 227.613 209.586 248.683 170.15 248.683C130.723 248.683 110.792 227.548 110.792 201.106C110.792 201.106 172.12 215.378 229.259 201.107Z" stroke="#1A1A1A" stroke-width="6" stroke-miterlimit="10" stroke-linecap="round" stroke-linejoin="round"/>
<path d="M125.267 129.375C119.31 113.583 94.9407 112.572 96.4671 135.579C96.67 138.633 97.7901 141.57 99.487 144.118L124.525 174.357L149.109 144.854C151.838 141.575 153.452 137.425 153.37 133.153C152.963 112.661 129.588 114.154 124.52 129.369L125.267 129.375Z" stroke="#1A1A1A" stroke-width="6" stroke-miterlimit="10" stroke-linecap="round" stroke-linejoin="round"/>
<path d="M216.147 129.375C210.24 113.583 186.074 112.572 187.588 135.579C187.789 138.633 188.9 141.57 190.583 144.118L215.413 174.357L239.791 144.854C242.497 141.575 244.098 137.425 244.017 133.153C243.613 112.661 220.433 114.154 215.407 129.369L216.147 129.375Z" stroke="#1A1A1A" stroke-width="6" stroke-miterlimit="10" stroke-linecap="round" stroke-linejoin="round"/>
</svg>
