<svg width="144" height="144" viewBox="0 0 144 144" fill="none" xmlns="http://www.w3.org/2000/svg">
<path d="M72 26.2322C46.6354 26.2322 26 46.8676 26 72.2322C26 97.5966 46.6354 118.232 72 118.232C97.3644 118.232 118 97.5966 118 72.2322C118 46.8676 97.3644 26.2322 72 26.2322Z" fill="#DAFFEC"/>
<path d="M72 118C97.4051 118 118 97.4051 118 72C118 46.5949 97.4051 26 72 26C46.5949 26 26 46.5949 26 72C26 97.4051 46.5949 118 72 118Z" stroke="#1A1A1A" stroke-width="4" stroke-miterlimit="10"/>
<path d="M53 88.2523C56.7536 85.1673 64.6478 83.2643 73 83.4225C80.6686 83.5677 87.5852 85.4289 91 88.2523" stroke="#1A1A1A" stroke-width="4" stroke-miterlimit="10" stroke-linecap="round" stroke-linejoin="round"/>
<path d="M43 53.9999C45.3708 49.1587 49 43.9999 61 45.9999" stroke="#1A1A1A" stroke-width="4" stroke-miterlimit="10" stroke-linecap="round" stroke-linejoin="round"/>
<path d="M101 53.9999C98.6292 49.1587 95 43.9999 83 45.9999" stroke="#1A1A1A" stroke-width="4" stroke-miterlimit="10" stroke-linecap="round" stroke-linejoin="round"/>
<path d="M60 62C60 65.3136 57.3104 68 54 68C50.6894 68 48 65.3134 48 62C48 58.6896 50.6894 56 54 56C57.3104 56 60 58.6896 60 62Z" fill="#1A1A1A"/>
<path d="M96 62C96 65.3136 93.3106 68 90 68C86.6894 68 84 65.3134 84 62C84 58.6896 86.6894 56 90 56C93.3106 56 96 58.6896 96 62Z" fill="#1A1A1A"/>
</svg>
