<svg width="534" height="534" viewBox="0 0 534 534" fill="none" xmlns="http://www.w3.org/2000/svg">
<path d="M267 439.067C361.211 439.067 437.583 362.694 437.583 268.483C437.583 174.273 361.211 97.8999 267 97.8999C172.789 97.8999 96.4166 174.273 96.4166 268.483C96.4166 362.694 172.789 439.067 267 439.067Z" fill="white"/>
<path d="M141.66 462.058C139.435 453.158 138.693 444.258 139.435 435.358C140.918 427.2 156.493 387.15 159.46 381.217C162.426 375.283 169.843 347.842 177.26 345.617C184.676 343.392 186.16 346.358 185.418 350.808C184.676 355.258 180.968 407.917 180.968 407.917L250.685 387.15C250.685 387.15 307.793 373.058 309.276 379.733C324.851 394.567 269.226 413.108 253.651 412.367C253.651 412.367 261.81 416.817 260.326 422.008C258.843 427.2 254.393 430.908 252.91 430.908C251.426 430.908 256.618 434.617 257.36 441.292C264.035 454.642 236.593 458.35 236.593 458.35C246.235 456.867 261.068 473.925 237.335 478.375C229.918 480.6 201.735 488.758 201.735 488.758C201.735 488.758 177.26 497.658 163.168 488.017C154.268 482.083 146.11 473.183 141.66 462.058Z" fill="white"/>
<path d="M214.342 330.041C232.142 324.85 302.6 333.75 318.917 345.616" stroke="#1A1A1A" stroke-width="6" stroke-linecap="round" stroke-linejoin="round"/>
<path d="M166.133 166.875C175.775 160.2 186.9 157.233 198.767 158.717C210.633 158.717 221.758 163.167 229.917 171.325" stroke="#1A1A1A" stroke-width="6" stroke-linecap="round" stroke-linejoin="round"/>
<path d="M378.992 196.542C358.967 191.35 338.2 190.608 318.175 194.317" stroke="#1A1A1A" stroke-width="6" stroke-linecap="round" stroke-linejoin="round"/>
<path d="M311.5 433.133C402.725 408.658 456.125 315.208 431.65 223.983C407.175 132.758 313.725 79.3582 222.5 103.833C148.333 123.858 96.4166 191.35 96.4166 268.483C96.4166 302.6 106.8 336.717 126.083 364.9" stroke="#1A1A1A" stroke-width="6" stroke-linecap="round" stroke-linejoin="round"/>
<path d="M229.917 227.691C229.917 240.3 220.275 249.941 207.667 249.941C195.058 249.941 185.417 240.3 185.417 227.691C185.417 215.083 195.058 205.441 207.667 205.441C220.275 205.441 229.917 215.083 229.917 227.691Z" fill="#1A1A1A"/>
<path d="M356 249.941C356 262.55 346.358 272.191 333.75 272.191C321.142 272.191 311.5 262.55 311.5 249.941C311.5 237.333 321.142 227.691 333.75 227.691C346.358 227.691 356 237.333 356 249.941Z" fill="#1A1A1A"/>
<path d="M146.108 420.525C138.692 432.392 137.208 447.967 142.4 461.317C150.558 485.792 172.067 499.883 195.8 492.467L232.142 482.083L239.558 479.858C245.492 478.375 249.2 471.7 247.717 466.508C246.233 462.8 243.267 459.833 238.817 459.092L247.717 456.866C253.65 455.383 257.358 448.708 255.875 443.516C254.392 439.808 251.425 436.1 246.975 435.358L255.875 432.391C261.808 430.908 265.517 424.233 264.033 419.041C263.292 415.333 260.325 412.366 256.617 411.625L304.083 397.533C310.017 396.05 313.725 389.375 312.242 384.183C310.758 378.991 304.083 374.541 298.892 376.025L223.242 398.275L185.417 409.4L189.867 351.55C190.608 344.875 178.742 342.65 174.292 353.033L146.108 420.525Z" stroke="#1A1A1A" stroke-width="6" stroke-linecap="round" stroke-linejoin="round"/>
</svg>
