<svg width="534" height="534" viewBox="0 0 534 534" fill="none" xmlns="http://www.w3.org/2000/svg">
<path d="M267.001 437.583C361.211 437.583 437.583 361.21 437.583 267C437.583 172.79 361.211 96.4175 267.001 96.4175C172.791 96.4175 96.4182 172.79 96.4182 267C96.4182 361.21 172.791 437.583 267.001 437.583Z" fill="white"/>
<path d="M267 437.583C361.211 437.583 437.583 361.21 437.583 267C437.583 172.789 361.211 96.4165 267 96.4165C172.789 96.4165 96.4167 172.789 96.4167 267C96.4167 361.21 172.789 437.583 267 437.583Z" stroke="#1A1A1A" stroke-width="6" stroke-linecap="round" stroke-linejoin="round"/>
<path d="M339.792 335.432C319.297 352.328 293.562 361.569 267 361.569C240.438 361.569 214.703 352.328 194.208 335.432" stroke="#1A1A1A" stroke-width="6" stroke-linecap="round" stroke-linejoin="round"/>
<path d="M235.065 247.743C232.311 241.546 227.82 236.281 222.134 232.585C216.448 228.89 209.812 226.923 203.031 226.923C196.25 226.923 189.614 228.89 183.929 232.585C178.243 236.281 173.751 241.546 170.998 247.743" stroke="#1A1A1A" stroke-width="6" stroke-miterlimit="10" stroke-linecap="round"/>
<path d="M363.002 247.743C360.249 241.546 355.757 236.281 350.071 232.585C344.386 228.89 337.75 226.923 330.969 226.923C324.188 226.923 317.552 228.89 311.866 232.585C306.18 236.281 301.689 241.546 298.935 247.743" stroke="#1A1A1A" stroke-width="6" stroke-miterlimit="10" stroke-linecap="round"/>
</svg>
