<svg width="320" height="144" viewBox="0 0 320 144" fill="none" xmlns="http://www.w3.org/2000/svg">
<path d="M117.808 112H122.692C126.069 112 128 109.987 128 106.673V105.917V21.9166H26.0815V48.471" fill="white"/>
<path d="M118 112H122.791C126.105 112 128 109.987 128 106.673V105.917V21.9166H28V54.2248" fill="white"/>
<path d="M118 112H122.791C126.105 112 128 109.987 128 106.673V105.917V21.9166H28" fill="white"/>
<path d="M118 32H18V112H118V32Z" fill="white"/>
<path d="M118 112H122.791C126.105 112 128 109.987 128 106.673V105.917V21.9166H28" stroke="#1A1A1A" stroke-width="4" stroke-miterlimit="10" stroke-linecap="round" stroke-linejoin="round"/>
<path d="M118 32H18V112H118V32Z" stroke="#1A1A1A" stroke-width="4" stroke-miterlimit="10" stroke-linecap="round" stroke-linejoin="round"/>
<path d="M79.1367 94.4253H108" stroke="#1A1A1A" stroke-width="4" stroke-miterlimit="10" stroke-linecap="round" stroke-linejoin="round"/>
<path d="M79.1367 81.6918H108" stroke="#1A1A1A" stroke-width="4" stroke-miterlimit="10" stroke-linecap="round" stroke-linejoin="round"/>
<path d="M79.1367 68.9584H108" stroke="#1A1A1A" stroke-width="4" stroke-miterlimit="10" stroke-linecap="round" stroke-linejoin="round"/>
<path d="M79.1367 56.2249H108" stroke="#1A1A1A" stroke-width="4" stroke-miterlimit="10" stroke-linecap="round" stroke-linejoin="round"/>
<path d="M68.0086 54.2249H28V94.2335H68.0086V54.2249Z" stroke="#1A1A1A" stroke-width="4" stroke-miterlimit="10" stroke-linecap="round" stroke-linejoin="round"/>
<path d="M28 43.9977H108" stroke="#1A1A1A" stroke-width="4" stroke-miterlimit="10" stroke-linecap="round" stroke-linejoin="round"/>
<path d="M248 120C274.51 120 296 98.5097 296 72C296 45.4903 274.51 24 248 24C221.49 24 200 45.4903 200 72C200 98.5097 221.49 120 248 120Z" fill="white"/>
<path d="M233.646 88.5752C238.384 87.2426 257.375 89.6452 261.735 92.7016" stroke="#1A1A1A" stroke-width="4" stroke-miterlimit="10" stroke-linecap="round" stroke-linejoin="round"/>
<path d="M220.602 46.6783C223.167 44.9003 226.295 44.1363 229.39 44.5339C232.525 44.6051 235.519 45.8473 237.789 48.0095" stroke="#1A1A1A" stroke-width="4" stroke-miterlimit="10" stroke-linecap="round" stroke-linejoin="round"/>
<path d="M274.088 54.6364C269.259 51.1878 263.386 54.6364 257.622 54.1156" stroke="#1A1A1A" stroke-width="4" stroke-miterlimit="10" stroke-linecap="round" stroke-linejoin="round"/>
<path d="M236 62C236 65.3136 233.31 68 230 68C226.689 68 224 65.3134 224 62C224 58.6896 226.689 56 230 56C233.31 56 236 58.6896 236 62Z" fill="#1A1A1A"/>
<path d="M270 66C270 69.3136 267.311 72 264 72C260.689 72 258 69.3134 258 66C258 62.6896 260.689 60 264 60C267.311 60 270 62.6896 270 66Z" fill="#1A1A1A"/>
<path d="M287.287 95.9394C291.528 88.9952 293.979 80.8382 294 72.1074C294.059 46.7012 273.512 26.0592 248.107 26C222.701 25.9406 202.06 46.4862 202 71.8924C201.941 97.2968 222.487 117.941 247.893 118C258.311 118.024 267.928 114.583 275.653 108.763" stroke="#1A1A1A" stroke-width="4" stroke-miterlimit="10" stroke-linecap="round" stroke-linejoin="round"/>
<path d="M263.857 80.4614C274.263 80.4614 282.699 72.0257 282.699 61.6196C282.699 51.2136 274.263 42.7778 263.857 42.7778C253.451 42.7778 245.015 51.2136 245.015 61.6196C245.015 72.0257 253.451 80.4614 263.857 80.4614Z" stroke="#1A1A1A" stroke-width="4" stroke-miterlimit="10" stroke-linecap="round" stroke-linejoin="round"/>
<path d="M283.375 61.9135C283.375 61.9135 287.801 63.0157 287.223 69.9391C286.645 76.8625 280.084 85.8633 280.084 85.8633C280.084 85.8633 276.043 90.5881 277.163 94.5071C278.596 99.5201 285.792 107.38 285.525 111.727" stroke="#1A1A1A" stroke-width="4" stroke-miterlimit="10" stroke-linecap="round" stroke-linejoin="round"/>
</svg>
