<svg width="320" height="144" viewBox="0 0 320 144" fill="none" xmlns="http://www.w3.org/2000/svg">
<path d="M122 42H22V114H122V42Z" fill="white"/>
<path d="M122 42H22V50H122V42Z" fill="white"/>
<path d="M122 50H22V58H122V50Z" fill="white"/>
<path d="M35.13 32H46.87C47.7001 32 48.4963 32.3298 49.0832 32.9168C49.6702 33.5037 50 34.2999 50 35.13V42H32V35.13C32 34.2999 32.3298 33.5037 32.9168 32.9168C33.5037 32.3298 34.2999 32 35.13 32Z" fill="white"/>
<path d="M61.13 40H72.87C73.7001 40 74.4963 40.3298 75.0832 40.9168C75.6702 41.5037 76 42.2999 76 43.13V50H58V43.13C58 42.719 58.081 42.312 58.2383 41.9322C58.3956 41.5525 58.6261 41.2074 58.9168 40.9168C59.2074 40.6261 59.5525 40.3956 59.9322 40.2383C60.312 40.081 60.719 40 61.13 40Z" fill="white"/>
<path d="M39.13 48H50.87C51.7001 48 52.4963 48.3298 53.0832 48.9168C53.6702 49.5037 54 50.2999 54 51.13V58H36V51.13C36 50.2999 36.3298 49.5037 36.9168 48.9168C37.5037 48.3298 38.2999 48 39.13 48Z" fill="white"/>
<path d="M22 58H122" stroke="#1A1A1A" stroke-width="4" stroke-linecap="round" stroke-linejoin="round"/>
<path d="M53.7856 50H122" stroke="#1A1A1A" stroke-width="4" stroke-linecap="round" stroke-linejoin="round"/>
<path d="M22 50H36.2158" stroke="#1A1A1A" stroke-width="4" stroke-linecap="round" stroke-linejoin="round"/>
<path d="M58 42H22V114H122V42H75.786" stroke="#1A1A1A" stroke-width="4" stroke-linecap="round" stroke-linejoin="round"/>
<path d="M35.13 32H46.87C47.7001 32 48.4963 32.3298 49.0832 32.9168C49.6702 33.5037 50 34.2999 50 35.13V42H32V35.13C32 34.2999 32.3298 33.5037 32.9168 32.9168C33.5037 32.3298 34.2999 32 35.13 32Z" stroke="#1A1A1A" stroke-width="4" stroke-linecap="round" stroke-linejoin="round"/>
<path d="M61.13 40H72.87C73.7001 40 74.4963 40.3298 75.0832 40.9168C75.6702 41.5037 76 42.2999 76 43.13V50H58V43.13C58 42.719 58.081 42.312 58.2383 41.9322C58.3956 41.5525 58.6261 41.2074 58.9168 40.9168C59.2074 40.6261 59.5525 40.3956 59.9322 40.2383C60.312 40.081 60.719 40 61.13 40Z" stroke="#1A1A1A" stroke-width="4" stroke-linecap="round" stroke-linejoin="round"/>
<path d="M39.13 48H50.87C51.7001 48 52.4963 48.3298 53.0832 48.9168C53.6702 49.5037 54 50.2999 54 51.13V58H36V51.13C36 50.2999 36.3298 49.5037 36.9168 48.9168C37.5037 48.3298 38.2999 48 39.13 48Z" stroke="#1A1A1A" stroke-width="4" stroke-linecap="round" stroke-linejoin="round"/>
<path d="M248.569 115.885C254.363 115.885 259.059 110.031 259.059 102.809C259.059 95.587 254.363 89.733 248.569 89.733C242.775 89.733 238.079 95.587 238.079 102.809C238.079 110.031 242.775 115.885 248.569 115.885Z" fill="#1A1A1A"/>
<path d="M210.569 52.385C213.697 54.1924 217.232 55.1784 220.843 55.251C221.469 55.2762 221.977 55.511 222.097 55.8396C223.932 60.8656 232.395 64.6436 242.397 64.6436C248.027 64.8274 253.596 63.4158 258.459 60.5716C258.916 60.3052 259.457 60.2217 259.974 60.3378C261.516 60.6726 263.091 60.8344 264.67 60.8202C271.134 60.8202 276.44 58.1882 276.992 54.8322C277.044 54.5122 277.529 54.2522 278.128 54.2184C280.889 54.0986 283.591 53.3858 286.052 52.1284C274.164 46.8465 261.293 44.1388 248.285 44.1829C235.276 44.227 222.424 47.022 210.572 52.3844L210.569 52.385Z" fill="white"/>
<path d="M248.569 124.025C256.957 124.024 265.184 121.729 272.362 117.39C279.54 113.051 285.395 106.833 289.295 99.4071C293.194 91.9813 294.989 83.6308 294.486 75.2585C293.984 66.8862 291.202 58.8107 286.441 51.905C283.879 53.311 281.026 54.1051 278.105 54.225C277.506 54.2592 277.022 54.5184 276.969 54.8388C276.418 58.1948 271.111 60.8268 264.647 60.8268C263.069 60.8411 261.494 60.6793 259.951 60.3444C259.435 60.2283 258.894 60.3118 258.436 60.5782C253.573 63.4225 248.005 64.8341 242.374 64.6502C232.368 64.6502 223.904 60.8722 222.074 55.8462C221.954 55.5176 221.447 55.2828 220.821 55.2576C217.16 55.1866 213.578 54.1727 210.423 52.3136C205.76 59.2344 203.068 67.2931 202.635 75.6267C202.202 83.9603 204.044 92.2548 207.963 99.6217C211.883 106.989 217.733 113.151 224.887 117.447C232.041 121.744 240.228 124.014 248.573 124.014L248.569 124.025Z" fill="white"/>
<path d="M248.569 115.885C254.363 115.885 259.059 110.031 259.059 102.809C259.059 95.587 254.363 89.733 248.569 89.733C242.775 89.733 238.079 95.587 238.079 102.809C238.079 110.031 242.775 115.885 248.569 115.885Z" fill="#1A1A1A"/>
<path d="M222.529 30.765C222.481 31.045 222.037 31.2722 221.488 31.302C214.792 31.6658 209.64 35.024 209.64 39.11C209.64 43.44 215.536 46.95 222.81 46.95H223.794C225.438 48.4692 226.759 50.3045 227.678 52.346C228.824 55.3581 229.627 58.4899 230.072 61.682C230.126 61.998 230.177 62.2938 230.226 62.5652C234.116 63.9797 238.229 64.6829 242.368 64.6412C247.999 64.8251 253.567 63.4135 258.43 60.5692C258.887 60.3029 259.428 60.2194 259.945 60.3354C261.487 60.6703 263.062 60.8322 264.641 60.818C265.506 60.8185 266.37 60.7705 267.229 60.674C267.657 57.8242 268.402 55.031 269.449 52.346C270.368 50.3047 271.689 48.4695 273.333 46.95H273.028C281.014 46.947 287.486 43.238 287.486 38.666C287.486 34.28 281.534 30.69 274.004 30.4C273.43 30.3778 272.964 30.1724 272.855 29.8848C271.173 25.4868 263.415 22.1808 254.241 22.1808C249.101 22.0135 244.012 23.2454 239.517 25.7448C239.094 25.9785 238.601 26.0511 238.128 25.9494C236.712 25.6562 235.27 25.5147 233.824 25.5272C227.898 25.5272 223.035 27.831 222.529 30.765Z" fill="white"/>
<path d="M272.569 76.025C272.569 77.2117 272.217 78.3717 271.558 79.3584C270.899 80.3451 269.962 81.1142 268.865 81.5683C267.769 82.0224 266.563 82.1412 265.399 81.9097C264.235 81.6782 263.166 81.1068 262.327 80.2677C261.488 79.4285 260.916 78.3594 260.685 77.1956C260.453 76.0317 260.572 74.8253 261.026 73.7289C261.48 72.6326 262.249 71.6955 263.236 71.0362C264.223 70.3769 265.383 70.025 266.569 70.025C268.16 70.0256 269.686 70.6579 270.811 71.783C271.936 72.9081 272.569 74.4339 272.569 76.025Z" fill="#1A1A1A"/>
<path d="M236.569 76.025C236.569 77.2117 236.217 78.3717 235.558 79.3584C234.899 80.3451 233.962 81.1142 232.865 81.5683C231.769 82.0224 230.563 82.1412 229.399 81.9097C228.235 81.6782 227.166 81.1068 226.327 80.2677C225.488 79.4285 224.916 78.3594 224.685 77.1956C224.453 76.0317 224.572 74.8253 225.026 73.7289C225.48 72.6326 226.249 71.6955 227.236 71.0362C228.223 70.3769 229.383 70.025 230.569 70.025C232.16 70.0256 233.686 70.6579 234.811 71.783C235.936 72.9081 236.569 74.4339 236.569 76.025Z" fill="#1A1A1A"/>
<path d="M248.569 124.025C256.957 124.024 265.184 121.729 272.362 117.39C279.54 113.051 285.395 106.833 289.295 99.4071C293.194 91.9813 294.989 83.6308 294.486 75.2585C293.984 66.8862 291.202 58.8107 286.441 51.905C283.879 53.3109 281.026 54.105 278.105 54.225C277.506 54.2592 277.022 54.5184 276.969 54.8388C276.418 58.1948 271.111 60.8268 264.647 60.8268C263.069 60.8411 261.494 60.6793 259.951 60.3444C259.435 60.2283 258.894 60.3118 258.436 60.5782C253.573 63.4225 248.005 64.8341 242.374 64.6502C232.368 64.6502 223.904 60.8722 222.074 55.8462C221.954 55.5176 221.447 55.2828 220.821 55.2576C217.16 55.1866 213.578 54.1727 210.423 52.3136C205.76 59.2344 203.068 67.2931 202.635 75.6267C202.202 83.9603 204.044 92.2548 207.963 99.6217C211.883 106.989 217.733 113.151 224.887 117.447C232.041 121.744 240.228 124.014 248.573 124.014L248.569 124.025Z" stroke="#1A1A1A" stroke-width="4" stroke-linecap="round" stroke-linejoin="round"/>
<path d="M248.569 115.885C254.363 115.885 259.059 110.031 259.059 102.809C259.059 95.587 254.363 89.733 248.569 89.733C242.775 89.733 238.079 95.587 238.079 102.809C238.079 110.031 242.775 115.885 248.569 115.885Z" stroke="#1A1A1A" stroke-width="4" stroke-linecap="round" stroke-linejoin="round"/>
<path d="M222.529 30.765C222.481 31.045 222.037 31.2722 221.488 31.302C214.792 31.6658 209.64 35.024 209.64 39.11C209.64 43.44 215.536 46.95 222.81 46.95H223.794C225.438 48.4692 226.759 50.3045 227.678 52.346C228.824 55.3581 229.627 58.4899 230.072 61.682C230.126 61.998 230.177 62.2938 230.226 62.5652C234.116 63.9797 238.229 64.6829 242.368 64.6412C247.999 64.8251 253.567 63.4135 258.43 60.5692C258.887 60.3029 259.428 60.2194 259.945 60.3354C261.487 60.6703 263.062 60.8322 264.641 60.818C265.506 60.8185 266.37 60.7705 267.229 60.674C267.657 57.8242 268.402 55.031 269.449 52.346C270.368 50.3047 271.689 48.4695 273.333 46.95H273.028C281.014 46.947 287.486 43.238 287.486 38.666C287.486 34.28 281.534 30.69 274.004 30.4C273.43 30.3778 272.964 30.1724 272.855 29.8848C271.173 25.4868 263.415 22.1808 254.241 22.1808C249.101 22.0135 244.012 23.2454 239.517 25.7448C239.094 25.9785 238.601 26.0511 238.128 25.9494C236.712 25.6562 235.27 25.5147 233.824 25.5272C227.898 25.5272 223.035 27.831 222.529 30.765Z" stroke="#1A1A1A" stroke-width="4" stroke-linecap="round" stroke-linejoin="round"/>
<path d="M272.569 47.1851C277.515 47.9308 282.27 49.6288 286.569 52.1851" stroke="#1A1A1A" stroke-width="4"/>
<path d="M223.569 47.1851C218.947 47.9722 214.528 49.6719 210.569 52.1851" stroke="#1A1A1A" stroke-width="4"/>
<path d="M223.809 46.965C227.937 48.145 236.901 49.089 239.733 43.427C243.98 47.673 253.887 46.375 257.425 43.427C259.195 46.965 266.271 49.797 273.349 46.965" stroke="#1A1A1A" stroke-width="4" stroke-linejoin="round"/>
</svg>
