<svg width="535" height="579" viewBox="0 0 535 579" fill="none" xmlns="http://www.w3.org/2000/svg">
<path d="M264.167 230.367V52.0957H71.3V194.063V246.582L256.934 240.233" fill="white"/>
<path d="M264.167 230.367V52.0957H75.8333V194.063" fill="white"/>
<path d="M226.368 180.12L65.6572 215.445L69.4926 266.245L216.34 246.638L231.752 244.58L250.042 242.138L226.368 180.12Z" fill="white"/>
<path d="M264.167 230.367V52.0957H75.8333V194.063" stroke="#1A1A1A" stroke-width="6" stroke-miterlimit="10" stroke-linecap="round" stroke-linejoin="round"/>
<path d="M226.368 180.12L65.6572 215.445L69.4926 266.245L216.34 246.638L231.752 244.58L250.042 242.138L226.368 180.12Z" stroke="#1A1A1A" stroke-width="6" stroke-miterlimit="10" stroke-linecap="round" stroke-linejoin="round"/>
<path d="M264.167 228.013C264.167 235.814 257.843 242.138 250.042 242.138" stroke="#1A1A1A" stroke-width="6" stroke-miterlimit="10" stroke-linecap="round" stroke-linejoin="round"/>
<path d="M97.5942 177.663H157.724" stroke="#1A1A1A" stroke-width="6" stroke-miterlimit="10" stroke-linecap="round" stroke-linejoin="round"/>
<path d="M97.5942 152.205H243.733" stroke="#1A1A1A" stroke-width="6" stroke-miterlimit="10" stroke-linecap="round" stroke-linejoin="round"/>
<path d="M97.5942 126.748H243.733" stroke="#1A1A1A" stroke-width="6" stroke-miterlimit="10" stroke-linecap="round" stroke-linejoin="round"/>
<path d="M97.5942 100.92H243.733" stroke="#1A1A1A" stroke-width="6" stroke-miterlimit="10" stroke-linecap="round" stroke-linejoin="round"/>
<path d="M97.5942 75.834H170" stroke="#1A1A1A" stroke-width="6" stroke-miterlimit="10" stroke-linecap="round" stroke-linejoin="round"/>
<circle cx="325.506" cy="315.349" r="4.70833" fill="#1A1A1A"/>
<ellipse cx="458.687" cy="448.467" rx="4.70834" ry="4.70834" fill="#1A1A1A"/>
<ellipse cx="458.609" cy="315.302" rx="4.70833" ry="4.70833" fill="#1A1A1A"/>
<ellipse cx="325.417" cy="315.438" rx="4.70833" ry="4.70834" fill="#1A1A1A"/>
<path d="M392.073 287.76V353.676" stroke="#1A1A1A" stroke-width="6" stroke-linecap="round" stroke-linejoin="round"/>
<path d="M420.323 381.927H486.239" stroke="#1A1A1A" stroke-width="6" stroke-linecap="round" stroke-linejoin="round"/>
<path d="M392.073 476.093V410.177" stroke="#1A1A1A" stroke-width="6" stroke-linecap="round" stroke-linejoin="round"/>
<path d="M363.823 381.927H297.906" stroke="#1A1A1A" stroke-width="6" stroke-linecap="round" stroke-linejoin="round"/>
<path d="M372.097 361.951L342.133 331.987" stroke="#1A1A1A" stroke-width="6" stroke-miterlimit="10" stroke-linecap="round"/>
<path d="M442.012 331.987L412.049 361.951" stroke="#1A1A1A" stroke-width="6" stroke-miterlimit="10" stroke-linecap="round"/>
<path d="M442.012 431.866L412.048 401.902" stroke="#1A1A1A" stroke-width="6" stroke-miterlimit="10" stroke-linecap="round"/>
<path d="M347.4 274.092L360.186 304.96" stroke="#1A1A1A" stroke-width="6" stroke-miterlimit="10" stroke-linecap="round"/>
<path d="M284.206 337.292L315.076 350.075" stroke="#1A1A1A" stroke-width="6" stroke-miterlimit="10" stroke-linecap="round"/>
<path d="M284.221 426.668L315.087 413.875" stroke="#1A1A1A" stroke-width="6" stroke-miterlimit="10" stroke-linecap="round"/>
<path d="M347.435 489.847L360.211 458.974" stroke="#1A1A1A" stroke-width="6" stroke-miterlimit="10" stroke-linecap="round"/>
<path d="M436.813 489.811L424.012 458.948" stroke="#1A1A1A" stroke-width="6" stroke-miterlimit="10" stroke-linecap="round"/>
<path d="M499.975 426.585L469.1 413.815" stroke="#1A1A1A" stroke-width="6" stroke-miterlimit="10" stroke-linecap="round"/>
<path d="M499.92 337.205L469.06 350.013" stroke="#1A1A1A" stroke-width="6" stroke-miterlimit="10" stroke-linecap="round"/>
<path d="M436.651 274.097L423.904 304.981" stroke="#1A1A1A" stroke-width="6" stroke-miterlimit="10" stroke-linecap="round"/>
<path d="M347.276 274.143L360.062 305.011" stroke="#1A1A1A" stroke-width="6" stroke-miterlimit="10" stroke-linecap="round"/>
<path d="M256.708 507.874L386.836 377.175C387.492 376.519 388.271 375.999 389.128 375.644C389.984 375.289 390.903 375.106 391.83 375.106C392.758 375.106 393.676 375.289 394.533 375.644C395.39 375.999 396.169 376.519 396.824 377.175C398.149 378.5 398.893 380.296 398.893 382.169C398.893 384.042 398.149 385.839 396.824 387.163L284.958 498.458" stroke="#1A1A1A" stroke-width="6" stroke-miterlimit="10" stroke-linecap="round"/>
<path d="M248.671 508.682L383.507 373.846C384.6 372.753 385.898 371.886 387.326 371.294C388.754 370.703 390.285 370.398 391.83 370.398C393.376 370.398 394.907 370.703 396.335 371.294C397.763 371.886 399.061 372.753 400.154 373.846C402.361 376.054 403.601 379.048 403.601 382.169C403.601 385.291 402.361 388.285 400.154 390.493L265.317 525.329C264.434 526.212 263.237 526.708 261.988 526.708C260.739 526.708 259.542 526.212 258.659 525.329L248.671 515.341C247.788 514.458 247.292 513.26 247.292 512.012C247.292 510.763 247.788 509.565 248.671 508.682Z" fill="white"/>
<circle cx="325.507" cy="315.349" r="4.70833" fill="#1A1A1A"/>
<ellipse cx="458.687" cy="448.467" rx="4.70834" ry="4.70834" fill="#1A1A1A"/>
<ellipse cx="458.609" cy="315.302" rx="4.70833" ry="4.70833" fill="#1A1A1A"/>
<ellipse cx="325.418" cy="315.438" rx="4.70833" ry="4.70834" fill="#1A1A1A"/>
<path d="M392.073 287.76V353.676" stroke="#1A1A1A" stroke-width="6" stroke-linecap="round" stroke-linejoin="round"/>
<path d="M420.323 381.927H486.24" stroke="#1A1A1A" stroke-width="6" stroke-linecap="round" stroke-linejoin="round"/>
<path d="M392.073 476.093V410.177" stroke="#1A1A1A" stroke-width="6" stroke-linecap="round" stroke-linejoin="round"/>
<path d="M363.823 381.927H297.906" stroke="#1A1A1A" stroke-width="6" stroke-linecap="round" stroke-linejoin="round"/>
<path d="M372.097 361.951L342.134 331.987" stroke="#1A1A1A" stroke-width="6" stroke-miterlimit="10" stroke-linecap="round"/>
<path d="M442.012 331.987L412.049 361.951" stroke="#1A1A1A" stroke-width="6" stroke-miterlimit="10" stroke-linecap="round"/>
<path d="M442.012 431.866L412.049 401.902" stroke="#1A1A1A" stroke-width="6" stroke-miterlimit="10" stroke-linecap="round"/>
<path d="M347.4 274.092L360.186 304.96" stroke="#1A1A1A" stroke-width="6" stroke-miterlimit="10" stroke-linecap="round"/>
<path d="M284.206 337.292L315.076 350.075" stroke="#1A1A1A" stroke-width="6" stroke-miterlimit="10" stroke-linecap="round"/>
<path d="M284.221 426.668L315.087 413.875" stroke="#1A1A1A" stroke-width="6" stroke-miterlimit="10" stroke-linecap="round"/>
<path d="M347.435 489.847L360.211 458.974" stroke="#1A1A1A" stroke-width="6" stroke-miterlimit="10" stroke-linecap="round"/>
<path d="M436.813 489.811L424.012 458.948" stroke="#1A1A1A" stroke-width="6" stroke-miterlimit="10" stroke-linecap="round"/>
<path d="M499.976 426.585L469.1 413.815" stroke="#1A1A1A" stroke-width="6" stroke-miterlimit="10" stroke-linecap="round"/>
<path d="M499.92 337.205L469.061 350.013" stroke="#1A1A1A" stroke-width="6" stroke-miterlimit="10" stroke-linecap="round"/>
<path d="M436.652 274.097L423.904 304.981" stroke="#1A1A1A" stroke-width="6" stroke-miterlimit="10" stroke-linecap="round"/>
<path d="M347.277 274.143L360.063 305.011" stroke="#1A1A1A" stroke-width="6" stroke-miterlimit="10" stroke-linecap="round"/>
<path d="M275.542 488.471L386.836 377.176C387.492 376.52 388.271 376 389.128 375.645C389.985 375.29 390.903 375.107 391.831 375.107C392.758 375.107 393.676 375.29 394.533 375.645C395.39 376 396.169 376.52 396.825 377.176C398.149 378.501 398.893 380.297 398.893 382.17C398.893 384.043 398.149 385.839 396.825 387.164L345.79 438.197" stroke="#1A1A1A" stroke-width="6" stroke-miterlimit="10" stroke-linecap="round"/>
</svg>
