<svg width="534" height="534" viewBox="0 0 534 534" fill="none" xmlns="http://www.w3.org/2000/svg">
<path d="M264.849 479.487C300.294 479.487 320.541 462.844 325.34 441.284H204.374C209.172 462.844 229.405 479.487 264.849 479.487Z" fill="white"/>
<path d="M337.458 77.2075C337.458 77.2075 246.753 51.5681 202.475 86.6192C158.205 121.67 145.73 202.319 145.73 202.319C150.067 218.732 177.073 265.309 177.073 265.309C181.078 272.066 193.783 324.501 201.17 353.271H328.514C334.938 332.17 360.776 252.033 364.151 244.171C368.482 234.063 375.869 214.386 379.6 206.962C388.574 189.095 383.589 173.921 383.589 154.845C383.589 114.15 369.482 97.544 337.449 77.1926L337.458 77.2075Z" fill="white"/>
<path d="M264.849 53.4148C201.57 53.4148 142.474 103.492 142.474 166.742C142.474 174.744 140.515 200.05 151.5 200.05C151.5 200.05 169.248 142.014 213.518 106.971C257.789 71.9268 328.625 79.3435 328.625 79.3435C323.697 64.1764 287.463 53.3926 264.871 53.3926L264.849 53.4148Z" fill="white"/>
<path d="M389.746 176.146C389.746 205.701 376.507 219.963 361.904 254.021C358.175 262.713 330.672 353.256 330.672 353.256H203.328C203.328 353.256 181.219 266.703 177.028 259.657C159.451 230.006 144.254 208.408 144.254 176.146C144.254 108.35 199.212 53.3999 267 53.3999C334.796 53.3999 389.746 108.357 389.746 176.146Z" fill="white" stroke="#1A1A1A" stroke-width="6" stroke-miterlimit="10" stroke-linecap="round" stroke-linejoin="round"/>
<path d="M267 350.215V261.66" stroke="#1A1A1A" stroke-width="6" stroke-miterlimit="10" stroke-linecap="round" stroke-linejoin="round"/>
<path d="M311.278 261.66H222.723" stroke="#1A1A1A" stroke-width="6" stroke-miterlimit="10" stroke-linecap="round" stroke-linejoin="round"/>
<path d="M327.52 436.026C327.52 460.056 300.442 479.539 267.037 479.539C233.632 479.539 206.554 460.056 206.554 436.026H327.52Z" fill="white" stroke="#1A1A1A" stroke-width="6" stroke-miterlimit="10" stroke-linecap="round" stroke-linejoin="round"/>
<path d="M207.593 407.768L326.408 382.032" stroke="#1A1A1A" stroke-width="6" stroke-miterlimit="10" stroke-linecap="round" stroke-linejoin="round"/>
<path d="M283.317 415.852L326.185 407.101" stroke="#1A1A1A" stroke-width="6" stroke-miterlimit="10" stroke-linecap="round" stroke-linejoin="round"/>
<path d="M207.815 382.7L250.683 373.948" stroke="#1A1A1A" stroke-width="6" stroke-miterlimit="10" stroke-linecap="round" stroke-linejoin="round"/>
</svg>
