<svg width="535" height="579" viewBox="0 0 535 579" fill="none" xmlns="http://www.w3.org/2000/svg">
<path d="M74.891 308.613C68.3902 308.613 63.1202 303.343 63.1202 296.842C63.1202 290.341 68.3902 285.071 74.891 285.071C81.3919 285.071 86.6619 290.341 86.6619 296.842C86.6619 303.343 81.3919 308.613 74.891 308.613Z" fill="white"/>
<path d="M80.9655 239.448C65.9742 220.271 57.0095 196.174 57.0095 170C57.0095 107.709 107.718 57 170.01 57C232.301 57 283.01 107.709 283.01 170C283.01 232.291 232.301 283 170.01 283C160.805 283 151.859 281.867 143.285 279.78C115.416 272.807 94.6479 259.341 80.9467 239.444L80.9655 239.448Z" fill="white"/>
<path d="M111.052 282.859C124.053 282.859 134.593 272.319 134.593 259.317C134.593 246.315 124.053 235.775 111.052 235.775C98.05 235.775 87.51 246.315 87.51 259.317C87.51 272.319 98.05 282.859 111.052 282.859Z" fill="white"/>
<path d="M77.031 308.224C70.64 309.413 64.4952 305.196 63.3062 298.805C62.1172 292.414 66.3342 286.27 72.7252 285.081C79.1162 283.892 85.261 288.109 86.45 294.5C87.639 300.891 83.422 307.035 77.031 308.224Z" stroke="#1A1A1A" stroke-width="6" stroke-miterlimit="10"/>
<path d="M149.001 276.22C155.79 277.566 162.796 278.287 169.976 278.287C229.678 278.287 278.268 229.697 278.268 169.996C278.268 110.294 229.678 61.7041 169.976 61.7041C110.275 61.7041 61.6848 110.294 61.6848 169.996C61.6848 193.128 68.9921 214.57 81.3986 232.193" stroke="#1A1A1A" stroke-width="6" stroke-miterlimit="10" stroke-linecap="round"/>
<path d="M117.492 279.774C104.759 282.143 92.5156 273.741 90.1467 261.008C87.7777 248.274 96.1797 236.031 108.913 233.662C121.647 231.293 133.889 239.696 136.258 252.429C138.627 265.162 130.225 277.405 117.492 279.774Z" stroke="#1A1A1A" stroke-width="6" stroke-miterlimit="10"/>
<path d="M213.364 179.416C218.564 179.416 222.78 175.2 222.78 170C222.78 164.799 218.564 160.583 213.364 160.583C208.163 160.583 203.947 164.799 203.947 170C203.947 175.2 208.163 179.416 213.364 179.416Z" fill="#1A1A1A"/>
<path d="M170 179.416C175.201 179.416 179.417 175.2 179.417 170C179.417 164.799 175.201 160.583 170 160.583C164.799 160.583 160.583 164.799 160.583 170C160.583 175.2 164.799 179.416 170 179.416Z" fill="#1A1A1A"/>
<path d="M126.636 179.416C131.837 179.416 136.053 175.2 136.053 170C136.053 164.799 131.837 160.583 126.636 160.583C121.435 160.583 117.219 164.799 117.219 170C117.219 175.2 121.435 179.416 126.636 179.416Z" fill="#1A1A1A"/>
<path d="M460.109 547.613C466.61 547.613 471.88 542.343 471.88 535.842C471.88 529.341 466.61 524.071 460.109 524.071C453.608 524.071 448.338 529.341 448.338 535.842C448.338 542.343 453.608 547.613 460.109 547.613Z" fill="white"/>
<path d="M454.034 478.448C469.026 459.271 477.99 435.174 477.99 409C477.99 346.709 427.282 296 364.99 296C302.699 296 251.99 346.709 251.99 409C251.99 471.291 302.699 522 364.99 522C374.195 522 383.141 520.867 391.715 518.78C419.584 511.807 440.352 498.341 454.053 478.444L454.034 478.448Z" fill="white"/>
<path d="M423.948 521.859C410.947 521.859 400.407 511.319 400.407 498.317C400.407 485.315 410.947 474.775 423.948 474.775C436.95 474.775 447.49 485.315 447.49 498.317C447.49 511.319 436.95 521.859 423.948 521.859Z" fill="white"/>
<path d="M457.969 547.224C464.36 548.413 470.505 544.196 471.694 537.805C472.883 531.414 468.666 525.27 462.275 524.081C455.884 522.892 449.739 527.109 448.55 533.5C447.361 539.891 451.578 546.035 457.969 547.224Z" stroke="#1A1A1A" stroke-width="6" stroke-miterlimit="10"/>
<path d="M385.999 515.22C379.21 516.566 372.204 517.287 365.024 517.287C305.322 517.287 256.732 468.697 256.732 408.996C256.732 349.294 305.322 300.704 365.024 300.704C424.725 300.704 473.315 349.294 473.315 408.996C473.315 432.128 466.008 453.57 453.601 471.193" stroke="#1A1A1A" stroke-width="6" stroke-miterlimit="10" stroke-linecap="round"/>
<path d="M417.508 518.774C430.241 521.143 442.484 512.741 444.853 500.008C447.222 487.274 438.82 475.031 426.087 472.662C413.353 470.293 401.111 478.696 398.742 491.429C396.373 504.162 404.775 516.405 417.508 518.774Z" stroke="#1A1A1A" stroke-width="6" stroke-miterlimit="10"/>
<path d="M321.636 418.416C316.436 418.416 312.22 414.2 312.22 409C312.22 403.799 316.436 399.583 321.636 399.583C326.837 399.583 331.053 403.799 331.053 409C331.053 414.2 326.837 418.416 321.636 418.416Z" fill="#1A1A1A"/>
<path d="M365 418.416C359.799 418.416 355.583 414.2 355.583 409C355.583 403.799 359.799 399.583 365 399.583C370.201 399.583 374.417 403.799 374.417 409C374.417 414.2 370.201 418.416 365 418.416Z" fill="#1A1A1A"/>
<path d="M408.364 418.416C403.163 418.416 398.947 414.2 398.947 409C398.947 403.799 403.163 399.583 408.364 399.583C413.565 399.583 417.781 403.799 417.781 409C417.781 414.2 413.565 418.416 408.364 418.416Z" fill="#1A1A1A"/>
</svg>
