<svg width="534" height="535" viewBox="0 0 534 535" fill="none" xmlns="http://www.w3.org/2000/svg">
<path d="M429.587 443.387H104.413C100.334 443.387 96.9967 440.049 96.9967 435.97V261.432C96.9967 257.353 100.334 254.016 104.413 254.016H429.587C433.667 254.016 437.004 257.353 437.004 261.432V435.97C437.004 440.049 433.667 443.387 429.587 443.387Z" fill="white" stroke="#1A1A1A" stroke-width="6" stroke-miterlimit="10" stroke-linecap="round" stroke-linejoin="round"/>
<path d="M428.079 445.516H106.529C101.839 445.516 98.0372 441.714 98.0372 437.024V260.847C98.0372 256.158 101.839 252.356 106.529 252.356H428.079C432.768 252.356 436.57 256.158 436.57 260.847V437.024C436.57 441.714 432.768 445.516 428.079 445.516Z" fill="white" stroke="#1A1A1A" stroke-width="6" stroke-miterlimit="10" stroke-linecap="round" stroke-linejoin="round"/>
<path d="M296.871 385.968H237.339" stroke="#1A1A1A" stroke-width="6" stroke-miterlimit="10" stroke-linecap="round" stroke-linejoin="round"/>
<path d="M99.6986 349.166H436.169" stroke="#1A1A1A" stroke-width="6" stroke-miterlimit="10" stroke-linecap="round" stroke-linejoin="round"/>
<path d="M296.871 289.525H237.339" stroke="#1A1A1A" stroke-width="6" stroke-miterlimit="10" stroke-linecap="round" stroke-linejoin="round"/>
<path d="M312.997 162.731L267.459 208.27" stroke="#1A1A1A" stroke-width="6" stroke-miterlimit="10" stroke-linecap="round" stroke-linejoin="round"/>
<path d="M221.55 162.731L267.088 208.27" stroke="#1A1A1A" stroke-width="6" stroke-miterlimit="10" stroke-linecap="round" stroke-linejoin="round"/>
<path d="M267.349 68.1801V208.131" stroke="#1A1A1A" stroke-width="6" stroke-miterlimit="10" stroke-linecap="round" stroke-linejoin="round"/>
</svg>
