<svg width="534" height="578" viewBox="0 0 534 578" fill="none" xmlns="http://www.w3.org/2000/svg">
<path d="M169.5 301.333C242.31 301.333 301.333 242.31 301.333 169.5C301.333 96.6905 242.31 37.6667 169.5 37.6667C96.6905 37.6667 37.6667 96.6905 37.6667 169.5C37.6667 242.31 96.6905 301.333 169.5 301.333Z" fill="white"/>
<path d="M169.5 301.333C242.31 301.333 301.333 242.31 301.333 169.5C301.333 96.6905 242.31 37.6667 169.5 37.6667C96.6905 37.6667 37.6667 96.6905 37.6667 169.5C37.6667 242.31 96.6905 301.333 169.5 301.333Z" stroke="#1A1A1A" stroke-width="6" stroke-miterlimit="10" stroke-linecap="round" stroke-linejoin="round"/>
<path d="M169.5 37.6667V301.333M169.5 37.6667C129.195 37.6667 96.521 96.6904 96.521 169.5C96.521 242.31 129.195 301.333 169.5 301.333M169.5 37.6667C209.805 37.6667 242.479 96.6904 242.479 169.5C242.479 242.31 209.805 301.333 169.5 301.333" stroke="#1A1A1A" stroke-width="6" stroke-miterlimit="10" stroke-linecap="round" stroke-linejoin="round"/>
<path d="M282.5 235.417H56.5" stroke="#1A1A1A" stroke-width="6" stroke-miterlimit="10" stroke-linecap="round" stroke-linejoin="round"/>
<path d="M301.333 169.5H37.6667" stroke="#1A1A1A" stroke-width="6" stroke-miterlimit="10" stroke-linecap="round" stroke-linejoin="round"/>
<path d="M282.5 103.583H56.5" stroke="#1A1A1A" stroke-width="6" stroke-miterlimit="10" stroke-linecap="round" stroke-linejoin="round"/>
<path d="M479.034 293.77H249.966V408.495H479.034V293.77Z" fill="white"/>
<path d="M479.034 408.495H249.966V522.838H479.034V408.495Z" fill="white"/>
<path d="M404.083 375.829L403.899 408.496H391.851L392.034 375.829H404.083Z" fill="white"/>
<path d="M376.689 343.001V376.06H419.097V357.025C419.097 357.025 447.481 357.025 456.83 366.375C452.793 359.783 447.287 354.213 440.742 350.1C434.196 345.988 426.789 343.444 419.097 342.667C404.995 341.166 390.766 341.278 376.689 343.001Z" fill="white"/>
<path d="M365.833 346.006V372.719C364.037 374.022 361.875 374.723 359.656 374.723C357.437 374.723 355.275 374.022 353.478 372.719V346.006C355.134 344.4 357.349 343.501 359.656 343.501C361.962 343.501 364.178 344.4 365.833 346.006Z" fill="white"/>
<path d="M326.2 351.549C326.181 352.974 326.074 354.397 325.879 355.809C325.307 359.975 323.628 363.911 321.017 367.206C318.406 370.502 314.959 373.038 311.035 374.548L308.287 375.511V408.496H290.74V375.509L288.404 374.731C284.427 373.248 280.92 370.729 278.246 367.434C275.571 364.139 273.828 360.188 273.196 355.991V355.809C272.505 352.296 272.678 348.668 273.7 345.237C274.721 341.805 276.56 338.673 279.06 336.11C281.139 334.136 283.502 332.484 286.069 331.208C286.368 331.087 286.691 331.04 287.011 331.071C287.331 331.102 287.639 331.21 287.909 331.385C288.179 331.56 288.402 331.798 288.561 332.078C288.719 332.358 288.807 332.672 288.818 332.994V347.792L292.712 353.656H306.367L310.261 347.792V332.994C310.258 332.667 310.337 332.345 310.491 332.057C310.646 331.768 310.871 331.524 311.145 331.346C311.419 331.168 311.733 331.062 312.059 331.038C312.385 331.013 312.712 331.072 313.01 331.208C315.568 332.498 317.929 334.149 320.019 336.11C322.049 338.125 323.644 340.534 324.707 343.189C325.77 345.845 326.278 348.689 326.2 351.549Z" fill="white"/>
<path d="M381.342 429.325H347.659V446.335H381.342V429.325Z" fill="white"/>
<path d="M479.034 293.77H249.966V408.495H479.034V293.77Z" stroke="#1A1A1A" stroke-width="6" stroke-linecap="round" stroke-linejoin="round"/>
<path d="M290.74 408.495V374.317L288.404 373.539C284.454 372.08 280.965 369.597 278.292 366.344C275.62 363.092 273.861 359.187 273.196 355.03V354.801C272.494 351.324 272.662 347.728 273.685 344.331C274.707 340.935 276.553 337.844 279.058 335.332C281.119 333.385 283.487 331.79 286.067 330.614C286.366 330.498 286.687 330.454 287.006 330.487C287.324 330.52 287.631 330.628 287.899 330.803C288.168 330.977 288.391 331.213 288.55 331.491C288.71 331.769 288.801 332.08 288.816 332.4V347.015L292.71 352.879H306.364L310.259 347.015V332.4C310.26 332.075 310.342 331.755 310.497 331.469C310.653 331.183 310.877 330.941 311.15 330.764C311.423 330.586 311.735 330.48 312.06 330.454C312.384 330.427 312.71 330.482 313.007 330.614C315.579 331.805 317.944 333.398 320.015 335.332C322.033 337.328 323.623 339.714 324.686 342.345C325.75 344.977 326.265 347.797 326.2 350.634C326.181 352.03 326.074 353.422 325.879 354.804C325.316 358.95 323.638 362.866 321.024 366.134C318.41 369.402 314.958 371.898 311.036 373.358L308.287 374.32V408.497" stroke="#1A1A1A" stroke-width="6" stroke-linecap="round" stroke-linejoin="round"/>
<path d="M403.899 408.496H479.035V522.847H249.965V408.496H290.739" stroke="#1A1A1A" stroke-width="6" stroke-linecap="round" stroke-linejoin="round"/>
<path d="M391.851 408.495H308.287" stroke="#1A1A1A" stroke-width="6" stroke-miterlimit="10"/>
<path d="M381.342 429.325H347.659V446.335H381.342V429.325Z" stroke="#1A1A1A" stroke-width="6" stroke-miterlimit="10"/>
<path d="M403.899 408.496L404.083 375.829H392.034L391.851 408.496" stroke="#1A1A1A" stroke-width="6" stroke-linecap="round" stroke-linejoin="round"/>
<path d="M376.689 342.772V375.83H419.097V356.797C419.097 356.797 447.481 356.797 456.83 366.146C452.793 359.554 447.287 353.984 440.742 349.871C434.196 345.759 426.789 343.215 419.097 342.438C404.995 340.937 390.766 341.049 376.689 342.772Z" stroke="#1A1A1A" stroke-width="6" stroke-linecap="round" stroke-linejoin="round"/>
<path d="M365.833 345.777V372.491C364.037 373.793 361.875 374.494 359.656 374.494C357.437 374.494 355.275 373.793 353.478 372.491V345.777C355.134 344.171 357.349 343.272 359.656 343.272C361.962 343.272 364.178 344.171 365.833 345.777Z" stroke="#1A1A1A" stroke-width="6" stroke-linecap="round" stroke-linejoin="round"/>
</svg>
