<svg width="535" height="579" viewBox="0 0 535 579" fill="none" xmlns="http://www.w3.org/2000/svg">
<path d="M264.167 230.367V52.0957H71.3V194.063V246.582L256.934 240.233" fill="white"/>
<path d="M264.167 230.367V52.0957H75.8333V194.063" fill="white"/>
<path d="M226.368 180.12L65.6572 215.445L69.4926 266.245L216.34 246.638L231.752 244.58L250.042 242.138L226.368 180.12Z" fill="white"/>
<path d="M264.167 230.367V52.0957H75.8333V194.063" stroke="#1A1A1A" stroke-width="6" stroke-miterlimit="10" stroke-linecap="round" stroke-linejoin="round"/>
<path d="M226.368 180.12L65.6572 215.445L69.4926 266.245L216.34 246.638L231.752 244.58L250.042 242.138L226.368 180.12Z" stroke="#1A1A1A" stroke-width="6" stroke-miterlimit="10" stroke-linecap="round" stroke-linejoin="round"/>
<path d="M264.167 228.013C264.167 235.814 257.843 242.138 250.042 242.138" stroke="#1A1A1A" stroke-width="6" stroke-miterlimit="10" stroke-linecap="round" stroke-linejoin="round"/>
<path d="M97.5942 177.663H157.724" stroke="#1A1A1A" stroke-width="6" stroke-miterlimit="10" stroke-linecap="round" stroke-linejoin="round"/>
<path d="M97.5942 152.205H243.733" stroke="#1A1A1A" stroke-width="6" stroke-miterlimit="10" stroke-linecap="round" stroke-linejoin="round"/>
<path d="M97.5942 126.748H243.733" stroke="#1A1A1A" stroke-width="6" stroke-miterlimit="10" stroke-linecap="round" stroke-linejoin="round"/>
<path d="M97.5942 100.92H243.733" stroke="#1A1A1A" stroke-width="6" stroke-miterlimit="10" stroke-linecap="round" stroke-linejoin="round"/>
<path d="M97.5942 75.834H170" stroke="#1A1A1A" stroke-width="6" stroke-miterlimit="10" stroke-linecap="round" stroke-linejoin="round"/>
<path d="M365 301.255C305.287 301.255 256.708 349.834 256.708 409.547C256.708 469.259 305.287 517.838 365 517.838C424.712 517.838 473.292 469.259 473.292 409.547C473.292 349.834 424.712 301.255 365 301.255Z" fill="white"/>
<path d="M365 517.291C424.808 517.291 473.292 468.807 473.292 409C473.292 349.192 424.808 300.708 365 300.708C305.192 300.708 256.708 349.192 256.708 409C256.708 468.807 305.192 517.291 365 517.291Z" stroke="#1A1A1A" stroke-width="6" stroke-miterlimit="10"/>
<path d="M320.271 447.261C329.107 439.998 347.692 435.518 367.354 435.891C385.407 436.233 401.69 440.614 409.729 447.261" stroke="#1A1A1A" stroke-width="6" stroke-miterlimit="10" stroke-linecap="round" stroke-linejoin="round"/>
<path d="M296.729 366.625C302.31 355.228 310.854 343.083 339.104 347.792" stroke="#1A1A1A" stroke-width="6" stroke-miterlimit="10" stroke-linecap="round" stroke-linejoin="round"/>
<path d="M433.271 366.625C427.689 355.228 419.146 343.083 390.896 347.792" stroke="#1A1A1A" stroke-width="6" stroke-miterlimit="10" stroke-linecap="round" stroke-linejoin="round"/>
<path d="M336.75 385.458C336.75 393.259 330.418 399.583 322.625 399.583C314.831 399.583 308.5 393.258 308.5 385.458C308.5 377.665 314.831 371.333 322.625 371.333C330.418 371.333 336.75 377.665 336.75 385.458Z" fill="#1A1A1A"/>
<path d="M421.5 385.458C421.5 393.259 415.169 399.583 407.375 399.583C399.581 399.583 393.25 393.258 393.25 385.458C393.25 377.665 399.581 371.333 407.375 371.333C415.169 371.333 421.5 377.665 421.5 385.458Z" fill="#1A1A1A"/>
</svg>
