<svg width="534" height="534" viewBox="0 0 534 534" fill="none" xmlns="http://www.w3.org/2000/svg">
<path fill-rule="evenodd" clip-rule="evenodd" d="M214.168 154.74C221.084 157.767 229.028 153.389 230.8 146.05L244.75 88.3059H289.25L303.245 146.271C305.043 153.717 313.157 157.706 320.151 154.582L373.074 119.796L378.488 124.864L405.56 150.207L372.158 205.713C366.696 217.757 380.157 221.098 380.157 221.098L443.025 236.728L441.802 273.792L441.557 281.205L379.538 294.029C372.476 296.73 369.524 305.12 373.338 311.647L373.581 312.064L406.984 367.57L379.911 392.913L374.497 397.981L321.574 363.195C314.58 360.07 306.466 364.059 304.669 371.505L290.674 429.472H246.174L232.863 374.339C230.739 365.542 221.599 360.179 212.991 362.974C212.831 363.026 212.745 363.057 212.745 363.057C212.637 363.109 212.525 363.154 212.415 363.205L159.492 397.991L154.078 392.923L127.005 367.58L160.408 312.073L160.651 311.657C164.465 305.13 161.513 296.739 154.451 294.039L92.4317 281.215L92.1869 273.802L90.9639 236.739L153.832 221.109C153.832 221.109 167.292 217.768 161.831 205.724L128.428 150.217L155.501 124.875L160.915 119.806L213.838 154.592C213.949 154.643 214.059 154.692 214.168 154.74ZM304.084 258.889C304.084 279.37 287.482 295.973 267.001 295.973C246.521 295.973 229.918 279.37 229.918 258.889C229.918 238.409 246.521 221.806 267.001 221.806C287.482 221.806 304.084 238.409 304.084 258.889Z" fill="white"/>
<path d="M266.999 295.973C287.479 295.973 304.082 279.37 304.082 258.889C304.082 238.409 287.479 221.806 266.999 221.806C246.518 221.806 229.916 238.409 229.916 258.889C229.916 279.37 246.518 295.973 266.999 295.973Z" stroke="#1A1A1A" stroke-width="6" stroke-linecap="round" stroke-linejoin="round"/>
<path d="M266.999 333.056C307.96 333.056 341.166 299.85 341.166 258.889C341.166 217.928 307.96 184.723 266.999 184.723C226.038 184.723 192.832 217.928 192.832 258.889C192.832 299.85 226.038 333.056 266.999 333.056Z" stroke="#1A1A1A" stroke-width="6" stroke-linecap="round" stroke-linejoin="round"/>
<path d="M230.799 146.05C229.027 153.389 221.083 157.767 214.167 154.74C214.058 154.692 213.947 154.643 213.837 154.592L160.914 119.806L155.5 124.875L128.427 150.217L161.83 205.724C167.291 217.768 153.831 221.109 153.831 221.109L90.9628 236.739L92.1858 273.802L92.4306 281.215L154.45 294.039C161.512 296.739 164.463 305.13 160.65 311.657L160.407 312.073L127.004 367.58L154.076 392.922L159.491 397.991L212.414 363.205C212.524 363.154 212.636 363.109 212.744 363.057C212.744 363.057 212.83 363.026 212.99 362.974C221.598 360.179 230.738 365.542 232.862 374.339L246.173 429.472H290.673L304.667 371.505C306.465 364.059 314.579 360.07 321.573 363.195L374.496 397.981L379.91 392.913L406.983 367.57L373.58 312.064L373.337 311.647C369.522 305.12 372.475 296.73 379.536 294.029L441.556 281.205L441.801 273.792L443.024 236.728L380.156 221.098C380.156 221.098 366.695 217.757 372.157 205.713L405.559 150.207L378.487 124.864L373.073 119.796L320.15 154.582C313.156 157.706 305.042 153.717 303.244 146.271L289.249 88.3059H244.749L230.799 146.05Z" stroke="#1A1A1A" stroke-width="6" stroke-linecap="round" stroke-linejoin="round"/>
</svg>
