<svg width="534" height="445" viewBox="0 0 534 445" fill="none" xmlns="http://www.w3.org/2000/svg">
<path d="M287.208 75.7256H51.7917V263.274H287.208V75.7256Z" fill="white"/>
<path d="M287.208 75.3374H51.7917V263.662H287.208V75.3374Z" stroke="#1A1A1A" stroke-width="6" stroke-miterlimit="10" stroke-linecap="round" stroke-linejoin="round"/>
<path d="M76.881 77.5894V98.1883H51.7917H287.208" stroke="#1A1A1A" stroke-width="6" stroke-miterlimit="10" stroke-linecap="round" stroke-linejoin="round"/>
<path d="M135.757 143.108L103.142 175.724" stroke="#1A1A1A" stroke-width="6" stroke-miterlimit="10" stroke-linecap="round" stroke-linejoin="round"/>
<path d="M135.757 208.657L103.142 176.042" stroke="#1A1A1A" stroke-width="6" stroke-miterlimit="10" stroke-linecap="round" stroke-linejoin="round"/>
<path d="M179.781 132.55L154.474 217.76" stroke="#1A1A1A" stroke-width="6" stroke-miterlimit="10" stroke-linecap="round" stroke-linejoin="round"/>
<path d="M198.498 208.35L231.113 175.735" stroke="#1A1A1A" stroke-width="6" stroke-miterlimit="10" stroke-linecap="round" stroke-linejoin="round"/>
<path d="M198.498 142.802L231.113 175.417" stroke="#1A1A1A" stroke-width="6" stroke-miterlimit="10" stroke-linecap="round" stroke-linejoin="round"/>
<path d="M317.046 204.875L376.226 264.055L435.406 323.235L334.036 365.424L232.667 407.613L274.856 306.244L317.046 204.875Z" fill="white"/>
<path d="M383.333 270.792L315.968 203.317L272.176 306.29L228.384 409.261L383.333 270.792Z" fill="white"/>
<path d="M266.679 319.216L318.762 371.3L292.721 381.901L256.009 345.189L266.679 319.216Z" fill="#1A1A1A"/>
<path d="M276.656 366.124L292.72 381.901L318.762 371.3L296.158 348.696L276.656 366.124Z" fill="#1A1A1A"/>
<path d="M292.955 257.432L324.484 288.961L379.568 344.045L350.033 357.527L311.557 319.051L280.458 287.952L292.955 257.432Z" fill="#1A1A1A"/>
<path d="M319.945 327.439L350.033 357.527L379.568 344.045L342.661 307.139L319.945 327.439Z" fill="#1A1A1A"/>
<path d="M337.639 183.352C342.84 183.352 347.056 179.197 347.056 174.073C347.056 168.948 342.84 164.793 337.639 164.793C332.439 164.793 328.223 168.948 328.223 174.073C328.223 179.197 332.439 183.352 337.639 183.352Z" fill="#1A1A1A"/>
<path d="M478.889 202.185C484.09 202.185 488.306 198.031 488.306 192.906C488.306 187.781 484.09 183.627 478.889 183.627C473.689 183.627 469.473 187.781 469.473 192.906C469.473 198.031 473.689 202.185 478.889 202.185Z" fill="#1A1A1A"/>
<path d="M464.764 301.06C469.965 301.06 474.181 296.906 474.181 291.781C474.181 286.656 469.965 282.502 464.764 282.502C459.564 282.502 455.348 286.656 455.348 291.781C455.348 296.906 459.564 301.06 464.764 301.06Z" fill="#1A1A1A"/>
<path d="M433.536 320.886L434.328 321.677L331.356 365.47L228.384 409.262L272.176 306.29L315.968 203.317" stroke="#1A1A1A" stroke-width="6" stroke-miterlimit="10" stroke-linecap="round" stroke-linejoin="round"/>
<path d="M316.48 203.829L375.148 262.497L433.536 320.886" stroke="#1A1A1A" stroke-width="6" stroke-miterlimit="10" stroke-linecap="round" stroke-linejoin="round"/>
<path d="M315.968 203.317L316.48 203.829" stroke="#1A1A1A" stroke-width="6" stroke-miterlimit="10" stroke-linecap="round" stroke-linejoin="round"/>
<path d="M413.893 140.687C414.998 142.799 415.789 145.126 416.198 147.622C418.322 160.557 409.386 173.113 396.239 175.667" stroke="#1A1A1A" stroke-width="6" stroke-miterlimit="10" stroke-linecap="round" stroke-linejoin="round"/>
<path d="M397.141 175.571C394.764 175.752 392.371 176.312 390.037 177.285C377.938 182.329 372.013 196.556 376.804 209.063" stroke="#1A1A1A" stroke-width="6" stroke-miterlimit="10" stroke-linecap="round" stroke-linejoin="round"/>
<path d="M485.941 231.792C485.476 234.13 484.633 236.439 483.387 238.639C476.927 250.045 462.091 254.219 450.25 247.962" stroke="#1A1A1A" stroke-width="6" stroke-miterlimit="10" stroke-linecap="round" stroke-linejoin="round"/>
<path d="M451.013 248.454C449.048 247.104 446.833 246.039 444.405 245.333C431.818 241.672 418.28 249.037 414.166 261.782" stroke="#1A1A1A" stroke-width="6" stroke-miterlimit="10" stroke-linecap="round" stroke-linejoin="round"/>
</svg>
