<svg width="535" height="579" viewBox="0 0 535 579" fill="none" xmlns="http://www.w3.org/2000/svg">
<path d="M240.931 207.274V52.1937H89.6611V286.48H165.289" fill="white"/>
<path d="M203.743 298.517C232.682 298.517 256.142 275.057 256.142 246.118C256.142 217.179 232.682 193.72 203.743 193.72C174.804 193.72 151.344 217.179 151.344 246.118C151.344 275.057 174.804 298.517 203.743 298.517Z" fill="white"/>
<path d="M240.931 207.274V52.1937H89.6611V286.48H165.289" stroke="#1A1A1A" stroke-width="6" stroke-miterlimit="10" stroke-linecap="round" stroke-linejoin="round"/>
<path d="M111.931 75.9252L151.167 75.9251" stroke="#1A1A1A" stroke-width="6" stroke-miterlimit="10" stroke-linecap="round" stroke-linejoin="round"/>
<path d="M111.931 115.854H215.514" stroke="#1A1A1A" stroke-width="6" stroke-miterlimit="10" stroke-linecap="round" stroke-linejoin="round"/>
<path d="M111.931 133.608H215.514" stroke="#1A1A1A" stroke-width="6" stroke-miterlimit="10" stroke-linecap="round" stroke-linejoin="round"/>
<path d="M111.931 151.361H215.514" stroke="#1A1A1A" stroke-width="6" stroke-miterlimit="10" stroke-linecap="round" stroke-linejoin="round"/>
<path d="M111.931 169.115H215.514" stroke="#1A1A1A" stroke-width="6" stroke-miterlimit="10" stroke-linecap="round" stroke-linejoin="round"/>
<path d="M111.931 186.869H215.514" stroke="#1A1A1A" stroke-width="6" stroke-miterlimit="10" stroke-linecap="round" stroke-linejoin="round"/>
<path d="M171.789 204.605H111.946" stroke="#1A1A1A" stroke-width="6" stroke-miterlimit="10" stroke-linecap="round" stroke-linejoin="round"/>
<path d="M157.052 222.356H111.946" stroke="#1A1A1A" stroke-width="6" stroke-miterlimit="10" stroke-linecap="round" stroke-linejoin="round"/>
<path d="M151.731 240.106H111.946" stroke="#1A1A1A" stroke-width="6" stroke-miterlimit="10" stroke-linecap="round" stroke-linejoin="round"/>
<path d="M203.743 298.517C232.682 298.517 256.142 275.057 256.142 246.118C256.142 217.179 232.682 193.72 203.743 193.72C174.804 193.72 151.344 217.179 151.344 246.118C151.344 275.057 174.804 298.517 203.743 298.517Z" stroke="#1A1A1A" stroke-width="6" stroke-miterlimit="10" stroke-linecap="round" stroke-linejoin="round"/>
<path d="M240.931 286.48L266.671 312.219" stroke="#1A1A1A" stroke-width="6" stroke-miterlimit="10" stroke-linecap="round" stroke-linejoin="round"/>
<path d="M157.941 228.632H221.203" stroke="#1A1A1A" stroke-width="6" stroke-miterlimit="10" stroke-linecap="round" stroke-linejoin="round"/>
<path d="M151.975 253.991H221.203" stroke="#1A1A1A" stroke-width="6" stroke-miterlimit="10" stroke-linecap="round" stroke-linejoin="round"/>
<path d="M468.216 520.659H261.785C259.195 520.659 257.076 518.54 257.076 515.95V405.148C257.076 402.559 259.195 400.44 261.785 400.44H468.216C470.805 400.44 472.924 402.559 472.924 405.148V515.95C472.924 518.54 470.805 520.659 468.216 520.659Z" fill="white"/>
<path d="M468.216 520.659H261.785C259.195 520.659 257.076 518.54 257.076 515.95V405.148C257.076 402.559 259.195 400.44 261.785 400.44H468.216C470.805 400.44 472.924 402.559 472.924 405.148V515.95C472.924 518.54 470.805 520.659 468.216 520.659Z" stroke="#1A1A1A" stroke-width="6" stroke-miterlimit="10" stroke-linecap="round" stroke-linejoin="round"/>
<path d="M467.258 522.01H263.128C260.151 522.01 257.737 519.596 257.737 516.619V404.777C257.737 401.8 260.151 399.386 263.128 399.386H467.258C470.235 399.386 472.648 401.8 472.648 404.777V516.619C472.648 519.596 470.235 522.01 467.258 522.01Z" stroke="#1A1A1A" stroke-width="6" stroke-miterlimit="10" stroke-linecap="round" stroke-linejoin="round"/>
<path d="M383.963 484.207H346.17" stroke="#1A1A1A" stroke-width="6" stroke-miterlimit="10" stroke-linecap="round" stroke-linejoin="round"/>
<path d="M258.792 460.844H472.394" stroke="#1A1A1A" stroke-width="6" stroke-miterlimit="10" stroke-linecap="round" stroke-linejoin="round"/>
<path d="M383.963 422.982H346.17" stroke="#1A1A1A" stroke-width="6" stroke-miterlimit="10" stroke-linecap="round" stroke-linejoin="round"/>
<path d="M394.2 342.49L365.291 371.399" stroke="#1A1A1A" stroke-width="6" stroke-miterlimit="10" stroke-linecap="round" stroke-linejoin="round"/>
<path d="M336.147 342.49L365.056 371.399" stroke="#1A1A1A" stroke-width="6" stroke-miterlimit="10" stroke-linecap="round" stroke-linejoin="round"/>
<path d="M365.221 282.465V371.311" stroke="#1A1A1A" stroke-width="6" stroke-miterlimit="10" stroke-linecap="round" stroke-linejoin="round"/>
</svg>
