<svg width="537" height="687" viewBox="0 0 537 687" fill="none" xmlns="http://www.w3.org/2000/svg">
<path d="M401.405 618.248H157.475C154.415 618.248 151.911 615.74 151.911 612.674V481.499C151.911 478.433 154.415 475.924 157.475 475.924H401.405C404.465 475.924 406.969 478.433 406.969 481.499V612.674C406.969 615.74 404.465 618.248 401.405 618.248Z" fill="#DAFFEC"/>
<path d="M401.405 618.248H157.475C154.415 618.248 151.911 615.74 151.911 612.674V481.499C151.911 478.433 154.415 475.924 157.475 475.924H401.405C404.465 475.924 406.969 478.433 406.969 481.499V612.674C406.969 615.74 404.465 618.248 401.405 618.248Z" stroke="#1A1A1A" stroke-width="4" stroke-miterlimit="10" stroke-linecap="round" stroke-linejoin="round"/>
<path d="M400.273 619.848H159.062C155.544 619.848 152.692 616.991 152.692 613.466V481.059C152.692 477.534 155.544 474.677 159.062 474.677H400.273C403.791 474.677 406.643 477.534 406.643 481.059V613.466C406.643 616.991 403.791 619.848 400.273 619.848Z" stroke="#1A1A1A" stroke-width="4" stroke-miterlimit="10" stroke-linecap="round" stroke-linejoin="round"/>
<path d="M301.848 575.094H257.19" stroke="#1A1A1A" stroke-width="4" stroke-miterlimit="10" stroke-linecap="round" stroke-linejoin="round"/>
<path d="M153.938 547.436H406.342" stroke="#1A1A1A" stroke-width="4" stroke-miterlimit="10" stroke-linecap="round" stroke-linejoin="round"/>
<path d="M301.848 502.612H257.19" stroke="#1A1A1A" stroke-width="4" stroke-miterlimit="10" stroke-linecap="round" stroke-linejoin="round"/>
<path d="M59.4852 60.4477C8.05256 121.226 -55.6448 284.401 101.027 450.88" stroke="#1DE9B6" stroke-width="4" stroke-linecap="round" stroke-dasharray="0.1 8"/>
<path d="M477.515 156.569C528.947 217.347 592.645 380.523 435.973 547.002" stroke="#1DE9B6" stroke-width="4" stroke-linecap="round" stroke-dasharray="0.1 8"/>
<path d="M148.385 84.6637V19.0034H77.4824V71.2921V90.6359L145.726 88.2973" fill="white"/>
<path d="M148.385 84.6637V19.0034H79.1489V71.2921" fill="white"/>
<path d="M134.489 66.157L75.4079 79.1678L76.8179 97.8783L130.803 90.6564L136.469 89.8986L143.193 88.9991L134.489 66.157Z" fill="#DAFFEC"/>
<path d="M148.385 84.6637V19.0034H79.1489V71.2921" stroke="#1A1A1A" stroke-width="4" stroke-miterlimit="10" stroke-linecap="round" stroke-linejoin="round"/>
<path d="M134.489 66.157L75.4079 79.1678L76.8179 97.8783L130.803 90.6564L136.469 89.8986L143.193 88.9991L134.489 66.157Z" stroke="#1A1A1A" stroke-width="4" stroke-miterlimit="10" stroke-linecap="round" stroke-linejoin="round"/>
<path d="M148.385 83.7966C148.385 86.6699 146.06 88.9991 143.193 88.9991" stroke="#1A1A1A" stroke-width="4" stroke-miterlimit="10" stroke-linecap="round" stroke-linejoin="round"/>
<path d="M87.1488 65.2517H109.254" stroke="#1A1A1A" stroke-width="4" stroke-miterlimit="10" stroke-linecap="round" stroke-linejoin="round"/>
<path d="M87.1488 55.8753H140.873" stroke="#1A1A1A" stroke-width="4" stroke-miterlimit="10" stroke-linecap="round" stroke-linejoin="round"/>
<path d="M87.1488 46.4991H140.873" stroke="#1A1A1A" stroke-width="4" stroke-miterlimit="10" stroke-linecap="round" stroke-linejoin="round"/>
<path d="M87.1488 36.9861H140.873" stroke="#1A1A1A" stroke-width="4" stroke-miterlimit="10" stroke-linecap="round" stroke-linejoin="round"/>
<path d="M87.1488 27.7465H113.767" stroke="#1A1A1A" stroke-width="4" stroke-miterlimit="10" stroke-linecap="round" stroke-linejoin="round"/>
<path d="M269.054 320.075V448.898" stroke="#1DE9B6" stroke-width="4" stroke-linecap="round" stroke-dasharray="0.1 8"/>
<path d="M237.403 242.003L237.398 297.443L292.198 297.433L320.048 276.54C320.035 276.455 320.487 269.696 320.487 269.696L320.482 241.95L237.403 242.003Z" fill="white"/>
<path d="M320.482 276.54H291.301C291.301 276.54 289.745 287.126 289.621 286.29V295.699L292.198 297.433L320.482 276.54Z" fill="#DAFFEC"/>
<path d="M236.44 242.297L320.482 241.95L320.487 214.256C320.487 214.256 309.174 212.523 310.13 212.523H303.974L304.065 222.532C307.054 223.323 307.787 227.886 307.787 227.886C307.748 231.687 303.151 232.273 303.129 232.269C299.931 231.612 298.821 230.045 298.857 227.41C298.882 225.557 298.937 225.104 300.257 223.806C301.143 222.936 301.354 222.751 302.525 222.453L302.477 212.523H296.351C296.802 212.523 260.689 212.523 261.646 212.523H255.308L255.43 222.453C258.42 223.244 259.399 223.932 259.369 227.168C259.333 230.971 254.685 232.858 254.663 232.858C250.846 232.821 249.484 231.058 249.52 227.234C249.537 225.381 251.037 224.002 252.357 222.704C253.244 221.834 253.567 221.279 254.739 220.981L254.324 212.523H247.845C248.215 212.523 237.403 214.256 237.403 214.256L236.44 242.297Z" fill="#9DFFD0"/>
<path d="M276.064 259.292C276.972 254.845 280.9 251.499 285.607 251.499C288.297 251.499 290.732 252.592 292.495 254.358C295.237 257.105 294.984 261.67 292.411 264.577L275.866 283.271H284.105" stroke="#1A1A1A" stroke-width="4" stroke-miterlimit="10" stroke-linecap="round" stroke-linejoin="round"/>
<path d="M256.922 258.089L265.701 251.499V283.271" stroke="#1A1A1A" stroke-width="4" stroke-miterlimit="10" stroke-linecap="round" stroke-linejoin="round"/>
<path d="M259.908 227.705C259.935 224.831 257.633 222.48 254.765 222.452C251.897 222.425 249.55 224.732 249.522 227.605C249.495 230.478 251.797 232.83 254.665 232.857C257.533 232.885 259.88 230.578 259.908 227.705Z" stroke="#1A1A1A" stroke-width="4" stroke-miterlimit="10" stroke-linecap="round" stroke-linejoin="round"/>
<path d="M261.646 214.256H296.351" stroke="#1A1A1A" stroke-width="4" stroke-miterlimit="10" stroke-linecap="round" stroke-linejoin="round"/>
<path d="M310.13 214.256H320.487V242.003H237.403V214.256H247.844" stroke="#1A1A1A" stroke-width="4" stroke-miterlimit="10" stroke-linecap="round" stroke-linejoin="round"/>
<path d="M237.398 241.95V297.443L292.198 297.433L320.482 276.54V241.95" stroke="#1A1A1A" stroke-width="4" stroke-miterlimit="10" stroke-linecap="round" stroke-linejoin="round"/>
<path d="M320.048 276.54H291.301V286.042" stroke="#1A1A1A" stroke-width="4" stroke-miterlimit="10" stroke-linecap="round" stroke-linejoin="round"/>
<path d="M308.376 227.703C308.404 224.83 306.101 222.478 303.233 222.451C300.366 222.423 298.018 224.73 297.991 227.603C297.963 230.476 300.266 232.828 303.134 232.856C306.002 232.883 308.349 230.576 308.376 227.703Z" stroke="#1A1A1A" stroke-width="4" stroke-miterlimit="10" stroke-linecap="round" stroke-linejoin="round"/>
<path d="M303.205 208.301V226.179" stroke="#1A1A1A" stroke-width="4" stroke-miterlimit="10" stroke-linecap="round" stroke-linejoin="round"/>
<path d="M254.739 208.301V226.179" stroke="#1A1A1A" stroke-width="4" stroke-miterlimit="10" stroke-linecap="round" stroke-linejoin="round"/>
<path d="M179.019 605.103H181.841V645.633H124.642V605.103H127.464H179.019Z" fill="#DAFFEC"/>
<path d="M181.171 605.399L152.918 645.365H181.98L181.171 605.399Z" fill="#9DFFD0"/>
<path d="M131.416 603.873C131.069 590.579 141.072 575.46 152.968 575.085C164.965 574.707 177.919 592.864 174.449 604.867H168.94C168.94 604.867 170.306 592.498 165.073 587.276C164.134 584.611 157.197 579.818 152.125 580.566C148.704 581.071 141.062 585.435 139.471 588.511C137.693 591.951 137.448 603.873 137.448 603.873L131.416 603.873Z" fill="#9DFFD0" stroke="#9DFFD0" stroke-width="4" stroke-miterlimit="10" stroke-linecap="round" stroke-linejoin="round"/>
<path d="M203.67 598.551C209.873 595.398 214.175 588.517 214.175 580.536C214.175 569.573 206.058 560.685 196.047 560.685C186.035 560.685 177.919 569.573 177.919 580.536C177.919 589.399 183.285 597.957 190.654 598.95" fill="#9DFFD0"/>
<path d="M203.821 598.146L203.802 603.482L204.071 639.422L196.28 647.228L189.944 639.146L194.934 634.147L189.47 628.672L194.042 622.357L188.606 616.911L188.63 611.75L193.32 607.05L191.172 604.898V598.146" fill="#9DFFD0"/>
<path d="M203.821 598.146L203.802 603.482L204.071 639.422L196.28 647.228L189.944 639.146L194.934 634.147L189.47 628.672L194.042 622.357L188.606 616.911L188.63 611.75L193.32 607.05L191.172 604.898V598.146" stroke="#9DFFD0" stroke-width="4" stroke-miterlimit="10" stroke-linecap="round" stroke-linejoin="round"/>
<path d="M199.522 641.051L201.601 638.966L201.222 604.582L199.121 604.606L199.522 641.051Z" fill="#1DE9B6"/>
<path d="M200.355 577.769C202.734 575.384 202.734 571.519 200.355 569.134C197.975 566.75 194.117 566.75 191.737 569.134C189.357 571.519 189.357 575.384 191.737 577.769C194.117 580.153 197.975 580.153 200.355 577.769Z" fill="#1DE9B6"/>
<path d="M179.019 605.033H181.841V645.562H124.642V605.033H127.464H179.019Z" stroke="#1A1A1A" stroke-width="4" stroke-miterlimit="10" stroke-linecap="round" stroke-linejoin="round"/>
<path d="M203.818 604.521L204.262 639.978L196.368 647.886L188.119 639.622L193.174 634.557L187.587 628.959L193.973 622.56L188.414 616.991V611.738L193.166 606.977L190.969 604.776" stroke="#1A1A1A" stroke-width="4" stroke-miterlimit="10" stroke-linecap="round" stroke-linejoin="round"/>
<path d="M175.158 600.003C176.164 586.071 164.964 574.707 152.968 575.085C141.072 575.46 131.416 587.368 131.416 600.003" stroke="#1A1A1A" stroke-width="4" stroke-miterlimit="10" stroke-linecap="round" stroke-linejoin="round"/>
<path d="M137.697 600.003C137.697 590.449 144.584 581.446 153.069 581.162C161.625 580.876 169.612 589.469 168.895 600.003" stroke="#1A1A1A" stroke-width="4" stroke-miterlimit="10" stroke-linecap="round" stroke-linejoin="round"/>
<path d="M200.355 577.769C202.734 575.384 202.734 571.519 200.355 569.134C197.975 566.75 194.117 566.75 191.737 569.134C189.357 571.519 189.357 575.384 191.737 577.769C194.117 580.153 197.975 580.153 200.355 577.769Z" stroke="#1A1A1A" stroke-width="4" stroke-miterlimit="10" stroke-linecap="round" stroke-linejoin="round"/>
<path d="M203.804 596.909C209.984 593.841 214.236 587.215 214.178 579.568C214.098 569.063 205.917 560.61 195.906 560.686C185.894 560.762 177.843 569.339 177.923 579.844C177.987 588.337 183.347 595.489 190.688 597.877" stroke="#1A1A1A" stroke-width="4" stroke-miterlimit="10" stroke-linecap="round" stroke-linejoin="round"/>
<path d="M412.225 136.503V129.566C412.225 120.895 420.879 113.959 429.534 113.959C439.919 122.629 450.305 122.629 460.69 113.959C469.345 113.959 477.999 120.895 477.999 129.566V136.503" fill="#9DFFD0"/>
<path d="M427.803 96.6172C422.61 96.6172 420.879 84.4781 420.879 72.339C420.879 61.9341 429.534 51.5291 445.112 51.5291C460.69 51.5291 469.345 61.9341 469.345 72.339C469.345 84.4781 467.614 96.6172 462.421 96.6172" fill="#1DE9B6"/>
<path d="M425.899 84.4781C425.726 98.3513 432.996 108.756 444.939 108.756C457.229 108.756 464.152 98.3513 464.152 84.4781C464.152 75.8073 458.959 67.1365 458.959 67.1365C445.112 67.1365 441.65 72.339 431.265 68.8707C431.265 68.8707 426.072 75.8073 425.899 84.4781Z" fill="#DAFFEC"/>
<path d="M412.225 134.769V129.566C412.225 120.895 420.879 113.959 429.534 113.959C439.919 122.629 450.305 122.629 460.69 113.959C469.345 113.959 477.999 120.895 477.999 129.566V134.769" stroke="#1A1A1A" stroke-width="4" stroke-linecap="round" stroke-linejoin="round"/>
<path d="M439.746 96.964C443.381 98.3513 446.843 98.3513 450.132 96.964" stroke="#1A1A1A" stroke-width="4" stroke-linecap="round" stroke-linejoin="round"/>
<path d="M455.325 82.7439C455.325 84.6515 453.767 86.2122 451.863 86.2122C449.959 86.2122 448.401 84.6515 448.401 82.7439C448.401 80.8363 449.959 79.2756 451.863 79.2756C453.767 79.2756 455.325 80.8363 455.325 82.7439Z" fill="#1A1A1A"/>
<path d="M441.477 82.7439C441.477 84.6515 439.919 86.2122 438.015 86.2122C436.111 86.2122 434.554 84.6515 434.554 82.7439C434.554 80.8363 436.111 79.2756 438.015 79.2756C439.919 79.2756 441.477 80.8363 441.477 82.7439Z" fill="#1A1A1A"/>
<path d="M427.803 96.6172C422.61 96.6172 420.879 84.4781 420.879 72.339C420.879 61.9341 429.534 51.5291 445.112 51.5291C460.69 51.5291 469.345 61.9341 469.345 72.339C469.345 84.4781 467.614 96.6172 462.421 96.6172" stroke="#1A1A1A" stroke-width="4" stroke-linecap="round" stroke-linejoin="round"/>
<path d="M455.325 82.7439C455.325 84.6515 453.767 86.2122 451.863 86.2122C449.959 86.2122 448.401 84.6515 448.401 82.7439C448.401 80.8363 449.959 79.2756 451.863 79.2756C453.767 79.2756 455.325 80.8363 455.325 82.7439Z" fill="#1A1A1A"/>
<path d="M441.477 82.7439C441.477 84.6515 439.919 86.2122 438.015 86.2122C436.111 86.2122 434.554 84.6515 434.554 82.7439C434.554 80.8363 436.111 79.2756 438.015 79.2756C439.919 79.2756 441.477 80.8363 441.477 82.7439Z" fill="#1A1A1A"/>
<path d="M425.899 84.4781C425.726 98.3513 434.381 108.756 444.939 108.756C455.325 108.756 464.152 98.3513 464.152 84.4781C464.152 75.8073 458.959 65.4024 458.959 65.4024C445.112 65.4024 441.65 70.6048 431.265 67.1365C431.265 67.1365 426.072 75.8073 425.899 84.4781Z" stroke="#1A1A1A" stroke-width="4" stroke-linejoin="round"/>
<path d="M439.746 96.964C443.381 98.3513 446.843 98.3513 450.132 96.964" stroke="#1A1A1A" stroke-width="4" stroke-linecap="round" stroke-linejoin="round"/>
</svg>
