<svg width="535" height="578" viewBox="0 0 535 578" fill="none" xmlns="http://www.w3.org/2000/svg">
<path d="M240.931 206.773V51.6934H89.6611V285.98H165.289" fill="white"/>
<path d="M203.743 298.017C232.682 298.017 256.142 274.557 256.142 245.618C256.142 216.679 232.682 193.22 203.743 193.22C174.804 193.22 151.344 216.679 151.344 245.618C151.344 274.557 174.804 298.017 203.743 298.017Z" fill="white"/>
<path d="M240.931 206.773V51.6934H89.6611V285.98H165.289" stroke="#1A1A1A" stroke-width="6" stroke-miterlimit="10" stroke-linecap="round" stroke-linejoin="round"/>
<path d="M111.931 75.4249L151.167 75.4248" stroke="#1A1A1A" stroke-width="6" stroke-miterlimit="10" stroke-linecap="round" stroke-linejoin="round"/>
<path d="M111.931 115.354H215.514" stroke="#1A1A1A" stroke-width="6" stroke-miterlimit="10" stroke-linecap="round" stroke-linejoin="round"/>
<path d="M111.931 133.107H215.514" stroke="#1A1A1A" stroke-width="6" stroke-miterlimit="10" stroke-linecap="round" stroke-linejoin="round"/>
<path d="M111.931 150.86H215.514" stroke="#1A1A1A" stroke-width="6" stroke-miterlimit="10" stroke-linecap="round" stroke-linejoin="round"/>
<path d="M111.931 168.614H215.514" stroke="#1A1A1A" stroke-width="6" stroke-miterlimit="10" stroke-linecap="round" stroke-linejoin="round"/>
<path d="M111.931 186.368H215.514" stroke="#1A1A1A" stroke-width="6" stroke-miterlimit="10" stroke-linecap="round" stroke-linejoin="round"/>
<path d="M171.789 204.104H111.946" stroke="#1A1A1A" stroke-width="6" stroke-miterlimit="10" stroke-linecap="round" stroke-linejoin="round"/>
<path d="M157.052 221.855H111.946" stroke="#1A1A1A" stroke-width="6" stroke-miterlimit="10" stroke-linecap="round" stroke-linejoin="round"/>
<path d="M151.731 239.605H111.946" stroke="#1A1A1A" stroke-width="6" stroke-miterlimit="10" stroke-linecap="round" stroke-linejoin="round"/>
<path d="M203.743 298.017C232.682 298.017 256.142 274.557 256.142 245.618C256.142 216.679 232.682 193.22 203.743 193.22C174.804 193.22 151.344 216.679 151.344 245.618C151.344 274.557 174.804 298.017 203.743 298.017Z" stroke="#1A1A1A" stroke-width="6" stroke-miterlimit="10" stroke-linecap="round" stroke-linejoin="round"/>
<path d="M240.931 285.979L266.671 311.719" stroke="#1A1A1A" stroke-width="6" stroke-miterlimit="10" stroke-linecap="round" stroke-linejoin="round"/>
<path d="M157.941 228.132H221.203" stroke="#1A1A1A" stroke-width="6" stroke-miterlimit="10" stroke-linecap="round" stroke-linejoin="round"/>
<path d="M151.975 253.49H221.203" stroke="#1A1A1A" stroke-width="6" stroke-miterlimit="10" stroke-linecap="round" stroke-linejoin="round"/>
<path d="M365 521.5C427.408 521.5 478 470.908 478 408.5C478 346.092 427.408 295.5 365 295.5C302.592 295.5 252 346.092 252 408.5C252 470.908 302.592 521.5 365 521.5Z" fill="white"/>
<path d="M331.21 447.521C342.362 444.384 387.07 450.04 397.336 457.235" stroke="#1A1A1A" stroke-width="6" stroke-miterlimit="10" stroke-linecap="round" stroke-linejoin="round"/>
<path d="M300.501 348.888C306.538 344.702 313.904 342.904 321.188 343.84C328.571 344.007 335.618 346.932 340.962 352.022" stroke="#1A1A1A" stroke-width="6" stroke-miterlimit="10" stroke-linecap="round" stroke-linejoin="round"/>
<path d="M426.417 367.623C415.047 359.505 401.221 367.623 387.652 366.397" stroke="#1A1A1A" stroke-width="6" stroke-miterlimit="10" stroke-linecap="round" stroke-linejoin="round"/>
<path d="M336.75 384.958C336.75 392.759 330.418 399.083 322.625 399.083C314.831 399.083 308.5 392.758 308.5 384.958C308.5 377.165 314.831 370.833 322.625 370.833C330.418 370.833 336.75 377.165 336.75 384.958Z" fill="#1A1A1A"/>
<path d="M416.792 394.375C416.792 402.176 410.46 408.5 402.667 408.5C394.873 408.5 388.542 402.175 388.542 394.375C388.542 386.582 394.873 380.25 402.667 380.25C410.46 380.25 416.792 386.582 416.792 394.375Z" fill="#1A1A1A"/>
<path d="M457.489 464.857C467.472 448.51 473.243 429.307 473.291 408.753C473.431 348.942 425.059 300.348 365.253 300.208C305.442 300.068 256.849 348.436 256.709 408.247C256.569 468.053 304.937 516.652 364.747 516.791C389.273 516.849 411.913 508.747 430.101 495.045" stroke="#1A1A1A" stroke-width="6" stroke-miterlimit="10" stroke-linecap="round" stroke-linejoin="round"/>
<path d="M402.331 428.42C426.828 428.42 446.687 408.56 446.687 384.063C446.687 359.565 426.828 339.706 402.331 339.706C377.833 339.706 357.974 359.565 357.974 384.063C357.974 408.56 377.833 428.42 402.331 428.42Z" stroke="#1A1A1A" stroke-width="6" stroke-miterlimit="10" stroke-linecap="round" stroke-linejoin="round"/>
<path d="M448.279 384.755C448.279 384.755 458.697 387.35 457.337 403.648C455.976 419.947 440.532 441.137 440.532 441.137C440.532 441.137 431.017 452.26 433.655 461.486C437.028 473.287 453.97 491.792 453.34 502.024" stroke="#1A1A1A" stroke-width="6" stroke-miterlimit="10" stroke-linecap="round" stroke-linejoin="round"/>
</svg>
