<svg width="144" height="144" viewBox="0 0 144 144" fill="none" xmlns="http://www.w3.org/2000/svg">
<path d="M68.8061 42.3521L43.3506 67.8076L83.7705 108.228L109.226 82.772L68.8061 42.3521Z" fill="#DAFFEC"/>
<path d="M27.9583 113.556C28.6873 114.285 29.6649 114.593 30.6083 114.49C30.6083 114.49 48.4117 114.593 58.5313 104.885C58.6599 104.774 58.78 104.654 58.9 104.534C62.5703 100.863 62.5617 94.9202 58.9 91.2584C55.238 87.5964 49.2949 87.588 45.6245 91.2584L27.9583 108.925C26.6805 110.203 26.6805 112.278 27.9583 113.556Z" fill="white"/>
<path d="M35.933 111.318C35.773 112.478 35.213 113.538 34.333 114.298Z" fill="white"/>
<path d="M44.293 106.038C44.533 107.658 43.573 109.998 41.673 111.998C41.093 112.598 40.493 113.118 39.873 113.518" fill="white"/>
<path d="M79.8654 99.7487C81.6836 97.9305 84.6316 97.9305 86.45 99.7487C88.2684 101.567 86.3002 102.545 84.482 104.363C82.6638 106.182 83.828 106.683 82.0096 104.865C80.1912 103.047 78.0472 101.567 79.8654 99.7487Z" fill="#1DE9B6"/>
<path d="M100.86 79.4303C102.678 77.6121 103.657 79.5809 105.476 81.3991C107.294 83.2173 106.556 82.7793 104.737 84.5977C102.919 86.4161 102.678 87.8331 100.86 86.0149C99.0415 84.1967 99.0417 81.2487 100.86 79.4303Z" fill="#1DE9B6"/>
<path d="M46.8465 66.728C48.6647 64.9098 50.1107 63.4092 51.9289 65.2274C53.7471 67.0456 53.7471 69.9936 51.9289 71.8119C50.1107 73.6303 48.6781 71.2828 46.8597 69.4646C45.0413 67.6464 45.0281 68.5464 46.8465 66.728Z" fill="#1DE9B6"/>
<path d="M66.9609 46.7675C68.7791 44.9493 68.6009 44.9458 70.4193 46.764C72.2377 48.5822 73.9655 49.7758 72.1473 51.5939C70.3291 53.4121 67.3811 53.4121 65.5627 51.5939C63.7443 49.7758 65.1427 48.5857 66.9609 46.7675Z" fill="#1DE9B6"/>
<path d="M106.971 83.3158L105.61 84.1776L66.9609 45.5288L68.3225 44.667L106.971 83.3158Z" fill="#9DFFD0"/>
<path d="M84.4821 104.363L83.1581 105.688L45.4707 68.0752L46.8467 66.728L84.4821 104.363Z" fill="#9DFFD0"/>
<path d="M105.476 81.3992L107.423 81.4026L83.1742 105.688L82.1992 104.711L105.476 81.3992Z" fill="#9DFFD0"/>
<path d="M69.3435 44.7024L70.7327 46.0916L46.8601 69.4644L45.4707 68.0752L69.3435 44.7024Z" fill="#9DFFD0"/>
<path d="M89.3209 88.0551C93.8055 83.5705 91.5671 74.0613 84.3214 66.8156C77.0757 59.5699 67.5664 57.3315 63.0819 61.816C58.5974 66.3006 60.8357 75.8098 68.0814 83.0556C75.3271 90.3013 84.8364 92.5396 89.3209 88.0551Z" fill="#1DE9B6"/>
<path d="M94.8501 70.3847L71.3847 93.8501C71.3003 93.9345 71.2075 93.9951 71.1063 94.0475C70.6939 94.2489 70.1631 94.1631 69.8061 93.8063L57.3607 81.3609C57.0037 81.0039 56.9179 80.4731 57.1195 80.0607C57.1719 79.9597 57.2325 79.8667 57.3169 79.7823L80.7821 56.3167C80.8665 56.2323 80.9595 56.1717 81.0605 56.1193C81.4729 55.9179 82.0037 56.0037 82.3607 56.3605L94.8061 68.8059C95.1631 69.1629 95.2489 69.6937 95.0473 70.1061C94.9949 70.2073 94.9345 70.3003 94.8501 70.3847Z" fill="white"/>
<path d="M114.371 27.1429C115.1 27.8719 115.409 28.8495 115.306 29.7929C115.306 29.7929 115.409 47.5963 105.701 57.7159C105.589 57.8445 105.469 57.9645 105.349 58.0847C101.679 61.7551 95.7357 61.7465 92.0739 58.0847C88.4119 54.4227 88.4035 48.4797 92.0739 44.8093L109.74 27.1431C111.018 25.8651 113.093 25.8649 114.371 27.1429Z" fill="white"/>
<path d="M106.854 43.4774C108.474 43.7174 110.814 42.7574 112.814 40.8574C113.414 40.2774 113.934 39.6774 114.334 39.0574" fill="white"/>
<path d="M112.134 35.1176C113.294 34.9576 114.354 34.3976 115.114 33.5176Z" fill="white"/>
<path d="M27.9583 113.556C28.6873 114.285 29.6649 114.593 30.6083 114.49C30.6083 114.49 48.4117 114.593 58.5313 104.885C58.6599 104.774 58.78 104.654 58.9 104.534C62.5703 100.863 62.5617 94.9202 58.9 91.2584C55.238 87.5964 49.2949 87.588 45.6245 91.2584L27.9583 108.925C26.6805 110.203 26.6805 112.278 27.9583 113.556Z" stroke="#1A1A1A" stroke-width="4" stroke-miterlimit="10" stroke-linecap="round"/>
<path d="M34.4731 114.278L34.4531 114.258" stroke="#1A1A1A" stroke-width="4" stroke-miterlimit="10" stroke-linecap="round"/>
<path d="M35.933 111.318C35.773 112.478 35.213 113.538 34.333 114.298" stroke="#1A1A1A" stroke-width="4" stroke-miterlimit="10" stroke-linecap="round"/>
<path d="M44.293 106.038C44.533 107.658 43.573 109.998 41.673 111.998C41.093 112.598 40.493 113.118 39.873 113.518" stroke="#1A1A1A" stroke-width="4" stroke-miterlimit="10" stroke-linecap="round"/>
<path d="M82.11 106.716L44.8846 69.4903C44.1036 68.7093 44.1036 67.4429 44.8846 66.6619L67.3694 44.1771C68.1504 43.3961 69.4168 43.3961 70.1978 44.1771L107.423 81.4025C108.204 82.1835 108.204 83.4499 107.423 84.2309L84.9384 106.716C84.1574 107.497 82.891 107.497 82.11 106.716Z" stroke="#1A1A1A" stroke-width="4" stroke-linecap="round" stroke-linejoin="round"/>
<path d="M94.8501 70.3847L71.3847 93.8501C71.3003 93.9345 71.2075 93.9951 71.1063 94.0475C70.6939 94.2489 70.1631 94.1631 69.8061 93.8063L57.3607 81.3609C57.0037 81.0039 56.9179 80.4731 57.1195 80.0607C57.1719 79.9597 57.2325 79.8667 57.3169 79.7823L80.7821 56.3167C80.8665 56.2323 80.9595 56.1717 81.0605 56.1193C81.4729 55.9179 82.0037 56.0037 82.3607 56.3605L94.8061 68.8059C95.1631 69.1629 95.2489 69.6937 95.0473 70.1061C94.9949 70.2073 94.9345 70.3003 94.8501 70.3847Z" stroke="#1A1A1A" stroke-width="4" stroke-linecap="round" stroke-linejoin="round"/>
<path d="M114.371 27.1429C115.1 27.8719 115.409 28.8495 115.306 29.7929C115.306 29.7929 115.409 47.5963 105.701 57.7159C105.589 57.8445 105.469 57.9645 105.349 58.0847C101.679 61.7551 95.7357 61.7465 92.0739 58.0847C88.4119 54.4227 88.4035 48.4797 92.0739 44.8093L109.74 27.1431C111.018 25.8651 113.093 25.8649 114.371 27.1429Z" stroke="#1A1A1A" stroke-width="4" stroke-miterlimit="10" stroke-linecap="round"/>
<path d="M106.854 43.4774C108.474 43.7174 110.814 42.7574 112.814 40.8574C113.414 40.2774 113.934 39.6774 114.334 39.0574" stroke="#1A1A1A" stroke-width="4" stroke-miterlimit="10" stroke-linecap="round"/>
<path d="M115.093 33.6574L115.073 33.6375" stroke="#1A1A1A" stroke-width="4" stroke-miterlimit="10" stroke-linecap="round"/>
<path d="M112.134 35.1176C113.294 34.9576 114.354 34.3976 115.114 33.5176" stroke="#1A1A1A" stroke-width="4" stroke-miterlimit="10" stroke-linecap="round"/>
</svg>
